<?xml version="1.0" encoding="utf-8"?>
<!-- Generator: Adobe Illustrator 25.0.0, SVG Export Plug-In . SVG Version: 6.00 Build 0)  -->
<svg version="1.1" id="Layer_1" xmlns="http://www.w3.org/2000/svg" xmlns:xlink="http://www.w3.org/1999/xlink" x="0px" y="0px"
	 viewBox="0 0 600 600" enable-background="new 0 0 600 600" xml:space="preserve">
<g>
	<g>
		<g>
			<path fill="#EBF5F7" d="M524.81,229.51c0,0-113.16,0-133.25,0c-20.09,0-20.34-24.92-2.51-29.94c18.35-5.16,31.37,6.64,31.37,6.64
				s4.84-61.26,50.71-54.07c36.16,5.67,34.06,45.05,34.06,45.05s7.44-16.21,26.95-10.07C552.5,193.52,550.29,229.51,524.81,229.51z"
				/>
			<ellipse fill="#DAE4E5" cx="287.39" cy="419.07" rx="172.16" ry="22.14"/>
			<ellipse fill="#DAE4E5" cx="459.38" cy="431.62" rx="126.33" ry="27.54"/>
			<path fill="#EBF5F7" d="M130.48,325.97c0,0-99.14,0-116.74,0c-17.6,0-17.82-20.02-2.2-24.04c16.07-4.14,27.48,5.33,27.48,5.33
				s4.24-49.2,44.43-43.42c31.68,4.55,29.84,36.18,29.84,36.18s6.52-13.02,23.61-8.09C154.73,297.07,152.8,325.97,130.48,325.97z"/>
			<path fill="#EBF5F7" d="M156.82,120.43c0,0,79.8,0,93.97,0c14.17,0,14.35-16.11,1.77-19.35c-12.94-3.33-22.12,4.29-22.12,4.29
				s-3.41-39.6-35.76-34.95c-25.5,3.67-24.02,29.12-24.02,29.12s-5.25-10.48-19-6.51C137.3,97.17,138.85,120.43,156.82,120.43z"/>
			<g>
				<g>
					<path fill="#DAE4E5" d="M173.61,411.17c0,4.36-25.16,7.9-56.2,7.9c-31.03,0-56.19-3.54-56.19-7.9c0-4.37,25.16-7.91,56.19-7.91
						C148.45,403.26,173.61,406.8,173.61,411.17z"/>
				</g>
				<g>
					<line fill="none" stroke="#023D5F" stroke-width="2" stroke-miterlimit="10" x1="82.49" y1="411.75" x2="100.19" y2="226.59"/>
					
						<line fill="none" stroke="#023D5F" stroke-width="2" stroke-miterlimit="10" x1="153.05" y1="411.75" x2="135.35" y2="226.59"/>
					<line fill="none" stroke="#023D5F" stroke-width="2" stroke-miterlimit="10" x1="98.78" y1="241.35" x2="136.76" y2="241.35"/>
					<line fill="none" stroke="#023D5F" stroke-width="2" stroke-miterlimit="10" x1="96.66" y1="263.57" x2="138.89" y2="263.57"/>
					<line fill="none" stroke="#023D5F" stroke-width="2" stroke-miterlimit="10" x1="94.53" y1="285.79" x2="141.01" y2="285.79"/>
					<line fill="none" stroke="#023D5F" stroke-width="2" stroke-miterlimit="10" x1="92.41" y1="308.02" x2="143.13" y2="308.02"/>
					<line fill="none" stroke="#023D5F" stroke-width="2" stroke-miterlimit="10" x1="90.28" y1="330.24" x2="145.18" y2="330.24"/>
					<line fill="none" stroke="#023D5F" stroke-width="2" stroke-miterlimit="10" x1="88.16" y1="352.46" x2="147.32" y2="352.46"/>
					<line fill="none" stroke="#023D5F" stroke-width="2" stroke-miterlimit="10" x1="86.04" y1="374.69" x2="149.49" y2="374.69"/>
					<line fill="none" stroke="#023D5F" stroke-width="2" stroke-miterlimit="10" x1="83.91" y1="396.91" x2="150.92" y2="396.91"/>
				</g>
				<path fill="#2B99FF" d="M137.65,227.7H97.89c-1.27,0-2.3-1.03-2.3-2.3l0,0c0-1.27,1.03-2.3,2.3-2.3h39.76
					c1.27,0,2.3,1.03,2.3,2.3l0,0C139.95,226.67,138.92,227.7,137.65,227.7z"/>
			</g>
			<g>
				<g>
					<g>
						<g>
							
								<line fill="none" stroke="#767F82" stroke-linecap="round" stroke-linejoin="round" x1="272.45" y1="409.49" x2="272.45" y2="410.99"/>
							<path fill="none" stroke="#767F82" stroke-linecap="round" stroke-linejoin="round" stroke-dasharray="2.9801,2.4834" d="
								M272.45,413.47v7.36c0,11.26-9.12,20.38-20.38,20.38h-34.81c-6.72,0-12.17-5.45-12.17-12.17V414.3"/>
							
								<line fill="none" stroke="#767F82" stroke-linecap="round" stroke-linejoin="round" x1="205.09" y1="413.06" x2="205.09" y2="411.56"/>
						</g>
					</g>
					<g>
						<g>
							
								<line fill="none" stroke="#767F82" stroke-linecap="round" stroke-linejoin="round" x1="150.8" y1="413.81" x2="150.8" y2="415.31"/>
							<path fill="none" stroke="#767F82" stroke-linecap="round" stroke-linejoin="round" stroke-dasharray="3.0308,2.5257" d="
								M150.8,417.84v18.71c0,13.12,10.63,23.75,23.75,23.75h29.25h46.01c19.48,0,35.28-15.79,35.28-35.28v-28.79"/>
							
								<line fill="none" stroke="#767F82" stroke-linecap="round" stroke-linejoin="round" x1="285.08" y1="394.97" x2="285.08" y2="393.47"/>
						</g>
					</g>
					<g>
						<path fill="none" d="M203.8,460.29"/>
					</g>
					<g>
						<g>
							
								<line fill="none" stroke="#767F82" stroke-linecap="round" stroke-linejoin="round" x1="169.23" y1="413.81" x2="169.23" y2="415.31"/>
							<path fill="none" stroke="#767F82" stroke-linecap="round" stroke-linejoin="round" stroke-dasharray="3.0954,2.5795" d="
								M169.23,417.89v18.65c0,13.12,10.63,23.75,23.75,23.75h27.89"/>
							
								<line fill="none" stroke="#767F82" stroke-linecap="round" stroke-linejoin="round" x1="222.15" y1="460.29" x2="223.65" y2="460.29"/>
						</g>
					</g>
					<g>
						<g>
							
								<line fill="none" stroke="#767F82" stroke-linecap="round" stroke-linejoin="round" x1="186.99" y1="413.81" x2="186.99" y2="415.31"/>
							<path fill="none" stroke="#767F82" stroke-linecap="round" stroke-linejoin="round" stroke-dasharray="2.9855,2.4879" d="
								M186.99,417.8v18.74c0,13.12,10.63,23.75,23.75,23.75h30.29"/>
							
								<line fill="none" stroke="#767F82" stroke-linecap="round" stroke-linejoin="round" x1="242.28" y1="460.29" x2="243.78" y2="460.29"/>
						</g>
					</g>
				</g>
				<g>
					<g>
						<polygon fill="#FDD247" points="157.29,342.09 157.29,422.73 144.31,422.75 144.04,342.11 						"/>
						<g>
							<polygon fill="#FCDED6" points="150.5,324.57 151.83,326.44 157.29,342.09 144.05,342.11 149.24,326.38 							"/>
							<polygon fill="#FDD247" points="150.5,324.57 151.83,326.44 151.13,326.88 150.51,326.38 149.84,327.06 149.24,326.38 
															"/>
						</g>
						<g>
							<polygon fill="#FCDED6" points="144.05,342.11 145.95,343.53 147.29,342.1 							"/>
							<polygon fill="#FCDED6" points="147.29,342.1 149.19,343.53 150.53,342.1 							"/>
							<polygon fill="#FCDED6" points="150.53,342.1 152.43,343.52 153.77,342.09 							"/>
							<polygon fill="#FCDED6" points="153.77,342.09 155.67,343.52 157.29,342.09 							"/>
						</g>
					</g>
					<polygon opacity="0.2" fill="#71606E" points="150.5,324.56 151.83,326.44 157.29,342.09 157.29,422.73 153.08,422.73 
						152.81,342.09 148.62,328.25 149.24,326.38 					"/>
					<rect x="144.31" y="421.86" fill="#FDD247" width="12.98" height="2.38"/>
				</g>
				<g>
					<g>
						<polygon fill="#FC9549" points="175.47,342.09 175.47,422.73 162.5,422.75 162.22,342.11 						"/>
						<g>
							<polygon fill="#FCDED6" points="168.69,324.57 170.01,326.44 175.47,342.09 162.24,342.11 167.42,326.38 							"/>
							<polygon fill="#FC9549" points="168.69,324.57 170.01,326.44 169.32,326.88 168.69,326.38 168.02,327.06 167.42,326.38 
															"/>
						</g>
						<g>
							<polygon fill="#FCDED6" points="162.24,342.11 164.13,343.53 165.48,342.1 							"/>
							<polygon fill="#FCDED6" points="165.48,342.1 167.37,343.53 168.72,342.1 							"/>
							<polygon fill="#FCDED6" points="168.72,342.1 170.61,343.52 171.96,342.09 							"/>
							<polygon fill="#FCDED6" points="171.96,342.09 173.86,343.52 175.47,342.09 							"/>
						</g>
					</g>
					<polygon opacity="0.2" fill="#71606E" points="168.69,324.56 170.01,326.44 175.47,342.09 175.48,422.73 171.27,422.73 
						170.99,342.09 166.81,328.25 167.42,326.38 					"/>
					<rect x="162.5" y="421.86" fill="#FC9549" width="12.98" height="2.38"/>
				</g>
				<g>
					<g>
						<polygon fill="#FC5E49" points="193.66,342.09 193.66,422.73 180.69,422.75 180.41,342.11 						"/>
						<g>
							<polygon fill="#FCDED6" points="186.88,324.57 188.2,326.44 193.66,342.09 180.42,342.11 185.61,326.38 							"/>
							<polygon fill="#FC5E49" points="186.88,324.57 188.2,326.44 187.5,326.88 186.88,326.38 186.21,327.06 185.61,326.38 							
								"/>
						</g>
						<g>
							<polygon fill="#FCDED6" points="180.42,342.11 182.32,343.53 183.66,342.1 							"/>
							<polygon fill="#FCDED6" points="183.66,342.1 185.56,343.53 186.9,342.1 							"/>
							<polygon fill="#FCDED6" points="186.9,342.1 188.8,343.52 190.15,342.09 							"/>
							<polygon fill="#FCDED6" points="190.15,342.09 192.04,343.52 193.66,342.09 							"/>
						</g>
					</g>
					<polygon opacity="0.2" fill="#71606E" points="186.88,324.56 188.2,326.44 193.66,342.09 193.66,422.73 189.46,422.73 
						189.18,342.09 185,328.25 185.61,326.38 					"/>
					<rect x="180.68" y="421.86" fill="#FC5E49" width="12.98" height="2.38"/>
				</g>
				<g>
					<g>
						<polygon fill="#2B99FF" points="211.85,342.09 211.85,422.73 198.87,422.75 198.6,342.11 						"/>
						<g>
							<polygon fill="#FCDED6" points="205.06,324.57 206.39,326.44 211.85,342.09 198.61,342.11 203.8,326.38 							"/>
							<polygon fill="#2085B7" points="205.06,324.57 206.39,326.44 205.69,326.88 205.07,326.38 204.4,327.06 203.8,326.38 							
								"/>
						</g>
						<g>
							<polygon fill="#FCDED6" points="198.61,342.11 200.5,343.53 201.85,342.1 							"/>
							<polygon fill="#FCDED6" points="201.85,342.1 203.75,343.53 205.09,342.1 							"/>
							<polygon fill="#FCDED6" points="205.09,342.1 206.99,343.52 208.33,342.09 							"/>
							<polygon fill="#FCDED6" points="208.33,342.09 210.23,343.52 211.85,342.09 							"/>
						</g>
					</g>
					<polygon opacity="0.2" fill="#71606E" points="205.06,324.56 206.39,326.44 211.85,342.09 211.85,422.73 207.64,422.73 
						207.37,342.09 203.18,328.25 203.8,326.38 					"/>
					<rect x="198.87" y="421.86" fill="#167F7F" width="12.98" height="2.38"/>
				</g>
			</g>
			
				<path fill="none" stroke="#767F82" stroke-linecap="round" stroke-linejoin="round" stroke-miterlimit="10" stroke-dasharray="3,2.5" d="
				M510.3,449.89h82.05c4.13,0,7.48,3.35,7.48,7.48l0,0c0,4.13-3.35,7.48-7.48,7.48h-258.3c-13.57,0-24.57-11-24.57-24.57v-29.11"/>
			
				<path fill="none" stroke="#767F82" stroke-linecap="round" stroke-linejoin="round" stroke-miterlimit="10" stroke-dasharray="3,2.5" d="
				M293.78,414.86v49.59c0,13.72-11.12,24.85-24.85,24.85h-8.74"/>
			
				<path fill="none" stroke="#767F82" stroke-linecap="round" stroke-linejoin="round" stroke-miterlimit="10" stroke-dasharray="3,2.5" d="
				M326.1,400.38v20.52c0,8.23,6.67,14.89,14.89,14.89h89.84"/>
			<g>
				<g>
					<path fill="#FDD247" d="M393.14,138.72c-21.31-26.38-52.99-45.09-87.56-45.69c-20-0.35-41.07,2.3-58.92,11.83
						c-15.58,8.31-29.36,20.15-40.44,33.86c-19.09,23.63-30.09,54.46-26.78,84.65c2.76,25.21,15.22,48.34,31.69,67.27
						c16.06,18.46,39.46,33.7,43.48,59.77c1.15,7.45-1.6,17.74,4.08,23.69c6.76,7.09,17.74,4.62,26.39,4.55
						c10.29-0.08,20.58-0.14,30.87-0.19c7.38-0.04,19.17,2.01,24.74-4.36c5.68-5.95,2.94-16.25,4.08-23.69
						c3.02-19.64,18.34-35.56,32.44-48.36c16.18-14.69,29.01-31.58,36.23-52.43C426.81,211.03,418.63,170.28,393.14,138.72z"/>
				</g>
				<g>
					<g>
						<path fill="#FFFFFF" d="M293.09,401.17c-0.05-3.3-0.11-6.58-0.24-9.88c-0.3-8.13-0.64-16.26-0.95-24.39
							c-0.4-10.35-0.87-20.69-1.43-31.04c-0.54-9.94-1.12-19.89-1.92-29.82c-0.82-10.27-1.64-20.59-4.05-30.63
							c-1.61-6.71-3.62-13.46-6.81-19.6c-2.12-4.08-4.86-8.02-8.64-10.72c-2.56-1.83-5.74-2.97-8.91-2.62
							c-3.33,0.37-6.38,2.16-8.38,4.84c-2.61,3.5-2.63,8.15-1.05,12.08c1.93,4.81,5.73,8.71,10.12,11.37
							c4.76,2.89,10.07,3.85,15.59,3.74c5.61-0.12,11.39-1.14,16.51-3.48c9.92-4.54,16.04-15.17,18.53-25.39
							c1.24-5.13,1.73-10.52,1.13-15.77c-0.44-3.8-2.84-6.88-6.1-8.8c-3.31-1.95-7.61-2.48-10.89-0.16
							c-3.15,2.24-4.73,6.05-5.07,9.8c-0.32,3.53,0.08,7.14,0.7,10.62c0.74,4.19,1.92,8.31,3.55,12.24
							c2.98,7.17,7.93,15.21,15.97,17.27c2.47,0.63,5.11,0.6,7.62,0.37c3.38-0.31,6.7-1.11,9.86-2.35c5.57-2.19,10.57-5.6,14.72-9.9
							c3.72-3.85,7.14-8.36,8.95-13.44c1.72-4.8,1.42-10.68-3.31-13.64c-2.34-1.46-5.24-1.92-7.94-1.52
							c-3.11,0.46-5.91,2.17-8.24,4.21c-2.42,2.12-4.42,4.7-6.26,7.32c-1.95,2.78-3.68,5.71-5.17,8.76
							c-6.01,12.25-8.11,25.69-8.78,39.2c-0.74,14.98-1.32,29.97-1.8,44.96c-0.46,14.42-0.81,28.85-1.19,43.28
							c-0.19,7.47-0.15,14.95-0.39,22.42c-0.03,1,1.52,0.99,1.55,0c0.24-7.42,0.72-14.84,0.95-22.26
							c0.22-7.03,0.43-14.06,0.65-21.09c0.43-13.74,0.83-27.47,1.36-41.21c0.28-7.28,0.6-14.56,0.95-21.83
							c0.33-6.79,0.64-13.55,1.8-20.26c2.15-12.46,6.73-24.98,15.07-34.68c3.62-4.21,8.89-8.15,14.7-6.08
							c2.32,0.82,3.98,2.62,4.55,5.01c0.52,2.19,0.09,4.49-0.63,6.58c-1.65,4.79-4.95,9.04-8.43,12.65
							c-3.97,4.11-8.76,7.44-14.11,9.48c-2.97,1.13-6.1,1.9-9.28,2.15c-2.32,0.18-4.71,0.23-6.97-0.42
							c-3.41-0.98-6.22-3.33-8.45-6.02c-5.09-6.13-7.83-14.31-9.17-22.06c-0.56-3.24-0.89-6.6-0.57-9.89
							c0.1-1.08,0.38-2.41,0.88-3.58c0.81-1.9,2.05-3.7,3.91-4.69c2.97-1.58,6.59-0.39,9.09,1.55c1.3,1.01,2.43,2.3,3.13,3.8
							c0.78,1.67,0.77,3.77,0.82,5.6c0.28,10.19-2.97,21.1-9.71,28.87c-3.3,3.8-7.36,6.65-12.16,8.2
							c-5.19,1.67-10.79,2.33-16.23,1.91c-5.17-0.4-9.9-2.31-13.86-5.69c-3.33-2.83-6.26-6.78-6.79-11.24
							c-0.45-3.81,1.24-7.32,4.52-9.32c2.14-1.31,4.63-1.74,7.05-1.18c3.31,0.77,6.03,3.04,8.19,5.59c3.5,4.13,5.8,9.26,7.57,14.33
							c2.16,6.19,3.78,12.6,4.87,19.07c0.84,4.96,1.3,9.97,1.76,14.98c0.82,8.84,1.45,17.69,2.04,26.55
							c0.67,10.09,1.21,20.18,1.81,30.28c0.53,8.93,1.01,17.85,1.44,26.78c0.26,5.51,0.48,11.02,0.83,16.52
							c0.05,0.75,0.09,1.51,0.14,2.26C292.1,401.83,293.1,401.84,293.09,401.17L293.09,401.17z"/>
					</g>
				</g>
				<rect x="264.11" y="378.28" fill="#007FDD" width="69.75" height="6.88"/>
				<path fill="#00B8E5" d="M337.89,408.97c-1.21-1.45-1.15-3.81,0.12-5.17l0.43-0.46c1.25-1.34,1.33-3.65,0.18-5.11l-0.7-0.89
					c-1.21-1.52-1.06-3.96,0.32-5.26c1.35-1.27,1.53-3.65,0.38-5.18l-1.87-2.49c-0.68-0.91-1.75-1.44-2.89-1.44h-69.32
					c-1.14,0-2.2,0.53-2.89,1.44l-1.87,2.49c-1.15,1.53-0.98,3.91,0.38,5.18c1.38,1.3,1.53,3.73,0.32,5.26l-0.7,0.89
					c-1.16,1.46-1.08,3.77,0.18,5.11l0.43,0.46c1.28,1.36,1.33,3.73,0.12,5.17l-0.55,0.66c-1.24,1.48-1.14,3.91,0.2,5.25l0.29,0.29
					c1.48,1.48,3.35,2.29,5.28,2.29h66.95c1.93,0,3.8-0.81,5.28-2.29l0.29-0.29c1.34-1.34,1.43-3.77,0.2-5.25L337.89,408.97z"/>
				
					<line fill="none" stroke="#00EBFF" stroke-linecap="round" stroke-linejoin="round" stroke-miterlimit="10" x1="302.08" y1="392.3" x2="334.39" y2="392.3"/>
				
					<line fill="none" stroke="#00EBFF" stroke-linecap="round" stroke-linejoin="round" stroke-miterlimit="10" x1="269.78" y1="392.3" x2="287.69" y2="392.3"/>
				
					<line fill="none" stroke="#00EBFF" stroke-linecap="round" stroke-linejoin="round" stroke-miterlimit="10" x1="265.1" y1="400.21" x2="311.92" y2="400.21"/>
				
					<line fill="none" stroke="#00EBFF" stroke-linecap="round" stroke-linejoin="round" stroke-miterlimit="10" x1="320.69" y1="400.21" x2="334.51" y2="400.21"/>
				
					<line fill="none" stroke="#00EBFF" stroke-linecap="round" stroke-linejoin="round" stroke-miterlimit="10" x1="269.78" y1="408.12" x2="294.83" y2="408.12"/>
				
					<line fill="none" stroke="#00EBFF" stroke-linecap="round" stroke-linejoin="round" stroke-miterlimit="10" x1="311.21" y1="408.12" x2="321.28" y2="408.12"/>
				
					<line fill="none" stroke="#00EBFF" stroke-linecap="round" stroke-linejoin="round" stroke-miterlimit="10" x1="292.17" y1="392.3" x2="295.8" y2="392.3"/>
				<g opacity="0.2">
					<path fill="#FFB839" d="M393.14,138.72c-21.31-26.38-52.99-45.09-87.56-45.69c-3.94-0.07-7.92-0.02-11.92,0.18
						c55.35,3.39,103.3,51.49,101.49,109.38c-1.52,48.66-25.29,83.36-74.42,104.64c-10.28,4.45-17.66,11.25-19.3,23.03
						c-1.51,10.89,1.92,21.92-0.33,32.77c-0.34,1.64-0.86,3.32-2.01,4.54c-1.07,1.13-2.56,1.74-4.03,2.26
						c-12.1,4.31-25.14,4.76-37.81,2.4c0.41,0.67,0.87,1.31,1.43,1.9c6.76,7.09,17.74,4.62,26.39,4.55
						c10.29-0.08,20.58-0.14,30.87-0.19c7.38-0.04,19.17,2.01,24.74-4.36c5.68-5.95,2.94-16.25,4.08-23.69
						c3.02-19.64,18.34-35.56,32.44-48.36c16.18-14.69,29.01-31.58,36.23-52.43C426.81,211.03,418.63,170.28,393.14,138.72z"/>
				</g>
			</g>
			<g>
				<path fill="#FFAD00" d="M585.72,424.14c0,0-10.74-7.62-19.42-8.86c-17.07-2.43-26.82,4.32-36.04-0.85
					c-3.82-2.14,5.66-3.6,6.66-6c0.14-0.34,0.06-3.66,0.06-3.66s-2,1.07-4.5,0.16c-17.29-6.24-31.96-5.64-57.06-5.64
					c-56.13,0-102.46,10.1-109.28,23.16h-0.87v3.48h0.01c0.33,14.57,49.51,26.35,110.14,26.35c58.52,0,109.72-11.24,110.31-24.87
					L585.72,424.14z M513.25,425.73c-7.94,0-14.38-2.32-14.38-5.18c0-2.86,6.44-5.18,14.38-5.18c7.94,0,14.38,2.32,14.38,5.18
					C527.62,423.42,521.19,425.73,513.25,425.73z"/>
				<path fill="#FDD247" d="M585.55,422.72c-1.46-5.82-10.57-9.27-19.25-10.51c-17.07-2.43-26.82,4.32-36.04-0.85
					c-5.37-3.02,15.56-4.68,2.21-9.49c-17.29-6.24-31.96-5.64-57.06-5.64c-60.83,0-110.14,11.86-110.14,26.5
					c0,14.63,49.31,26.5,110.14,26.5C536.23,449.22,589.14,437.08,585.55,422.72z M513.25,422.67c-7.94,0-14.38-2.32-14.38-5.18
					c0-2.86,6.44-5.18,14.38-5.18c7.94,0,14.38,2.32,14.38,5.18C527.62,420.35,521.19,422.67,513.25,422.67z"/>
				<g>
					<path fill="#FC9549" d="M426.03,425.59c-0.43-0.82-1.12-1.44-1.82-1.99c-1.68-1.32-3.56-2.36-5.54-3.06
						c0.47-0.18,0.6-0.89,0.36-1.36c-0.23-0.47-0.71-0.74-1.17-0.94c-2.13-0.91-4.51-0.8-6.8-0.67c-4.6,0.26-9.22,0.52-13.75,1.4
						c-2.11,0.41-4.48,1.18-5.4,3.26c-0.36,0.81-0.44,1.77-0.23,2.64c-0.5,0.33-1.13,0.32-1.69,0.5c-0.56,0.18-1.13,0.74-0.97,1.34
						c0.07,0.23,0.23,0.42,0.39,0.58c4.24,4.3,10.44,5.3,16.05,5.32c6.04,0.03,12.42-0.74,18.2-2.62c0.98-0.32,2.04-0.74,2.52-1.71
						C426.6,427.46,426.46,426.41,426.03,425.59z"/>
				</g>
				<g>
					<path fill="#FC5E49" d="M468.38,411.06c-0.43-0.82-1.12-1.44-1.82-1.99c-1.68-1.32-3.56-2.36-5.54-3.06
						c0.47-0.18,0.6-0.89,0.36-1.36c-0.23-0.47-0.71-0.74-1.17-0.94c-2.13-0.91-4.51-0.8-6.8-0.67c-4.6,0.26-9.22,0.52-13.75,1.4
						c-2.11,0.41-4.48,1.18-5.4,3.26c-0.36,0.82-0.44,1.77-0.23,2.64c-0.5,0.33-1.13,0.32-1.69,0.5c-0.56,0.18-1.13,0.74-0.97,1.34
						c0.07,0.23,0.23,0.42,0.39,0.58c4.24,4.3,10.44,5.3,16.05,5.32c6.04,0.03,12.42-0.74,18.2-2.62c0.98-0.32,2.04-0.74,2.52-1.71
						C468.95,412.92,468.81,411.88,468.38,411.06z"/>
				</g>
				<g>
					<path fill="#00EBFF" d="M544.96,432.57c-0.37-0.7-0.96-1.23-1.56-1.7c-1.44-1.13-3.05-2.02-4.74-2.62
						c0.4-0.15,0.51-0.76,0.31-1.16c-0.2-0.4-0.61-0.64-1-0.81c-1.82-0.78-3.86-0.68-5.82-0.57c-3.94,0.22-7.89,0.44-11.78,1.2
						c-1.81,0.35-3.83,1.01-4.62,2.79c-0.31,0.7-0.38,1.51-0.2,2.26c-0.43,0.28-0.96,0.27-1.45,0.42c-0.48,0.15-0.97,0.63-0.83,1.15
						c0.06,0.2,0.2,0.36,0.34,0.5c3.63,3.68,8.94,4.54,13.74,4.56c5.17,0.02,10.63-0.63,15.59-2.24c0.84-0.27,1.75-0.64,2.16-1.47
						C545.45,434.16,545.33,433.27,544.96,432.57z"/>
				</g>
				<g>
					<path fill="#FFFFFF" d="M486.12,434.44c-0.43-0.82-1.12-1.44-1.82-1.99c-1.68-1.32-3.56-2.36-5.54-3.06
						c0.47-0.18,0.6-0.89,0.36-1.36c-0.24-0.47-0.71-0.74-1.17-0.94c-2.13-0.91-4.51-0.8-6.8-0.67c-4.6,0.26-9.22,0.52-13.75,1.4
						c-2.11,0.41-4.48,1.18-5.4,3.26c-0.36,0.81-0.44,1.77-0.23,2.64c-0.5,0.33-1.13,0.32-1.69,0.5c-0.56,0.18-1.13,0.74-0.97,1.34
						c0.07,0.23,0.23,0.42,0.39,0.58c4.24,4.3,10.44,5.3,16.05,5.32c6.04,0.03,12.42-0.74,18.2-2.62c0.98-0.32,2.04-0.74,2.52-1.71
						C486.69,436.31,486.55,435.26,486.12,434.44z"/>
				</g>
			</g>
			<g>
				<g>
					<path fill="#DAE4E5" d="M150.59,496.94c0,2.91-20.06,5.26-44.81,5.26c-24.75,0-44.81-2.36-44.81-5.26
						c0-2.91,20.06-5.26,44.81-5.26C130.53,491.67,150.59,494.03,150.59,496.94z"/>
				</g>
				<g>
					<g>
						<path fill="#DBE2E8" d="M57.6,478.21c-4.43-8.72-5.62-19.27-1.71-28.44c2.27-5.31,5.45-10.54,10.06-14.12
							c4.03-3.12,8.76-5.35,13.68-6.65c8.47-2.24,17.88-1.5,25.44,2.93c6.31,3.7,10.93,9.71,13.97,16.27
							c2.97,6.4,4.22,14.36,10.61,18.49c1.83,1.18,4.86,1.67,5.76,3.87c1.07,2.62-0.88,5.21-1.91,7.48c-1.23,2.7-2.46,5.4-3.69,8.1
							c-0.88,1.94-1.73,5.28-4.06,6c-2.24,0.79-4.62-1.14-6.72-1.72c-5.53-1.52-11.52,0.64-16.55,2.84
							c-5.77,2.53-11.73,3.91-18.07,3.36C72.66,495.59,62.9,488.64,57.6,478.21z"/>
					</g>
					<path fill="none" stroke="#FFFFFF" stroke-miterlimit="10" d="M134,480.64c0,0-17.82-8.79-26.32-13.6
						c-2.26-1.28-4.6-2.55-7.7-5.31c-2-1.78-6.04-5.97-3.45-8.75c3.06-3.27,6.67,2.07,6.64,5.05c-0.02,2.45-2.13,6.06-4.16,7.51
						c-3.58,2.53-9.08,1.89-12.48-0.22c-2.61-1.61-1.14-5.43,1.76-5.24c2.76,0.18,10.54,6,8.74,10.68
						c-0.94,2.46-2.95,4.41-5.31,5.56c-4.26,2.08-9.79-3.32-3.8-5.25c4.26-1.37,9.69,0.1,13.68,1.65
						c10.92,4.24,19.38,7.87,30.22,12.31"/>
					
						<rect x="122.61" y="481.07" transform="matrix(-0.4087 0.9127 -0.9127 -0.4087 626.8524 558.0145)" fill="#007FDD" width="20.12" height="1.99"/>
					<path fill="#00B8E5" d="M135.25,495.52c-0.24-0.49-0.87-0.75-1.38-0.58L133.7,495c-0.5,0.17-1.12-0.08-1.37-0.56l-0.15-0.29
						c-0.26-0.5-0.92-0.75-1.42-0.54c-0.49,0.21-1.14-0.03-1.41-0.51l-0.44-0.79c-0.16-0.29-0.17-0.63-0.04-0.93l8.17-18.25
						c0.13-0.3,0.4-0.52,0.72-0.59l0.88-0.2c0.54-0.12,1.14,0.2,1.32,0.71c0.18,0.52,0.8,0.84,1.35,0.7l0.32-0.08
						c0.52-0.13,1.12,0.16,1.32,0.65l0.07,0.17c0.21,0.5,0.82,0.79,1.35,0.64l0.24-0.07c0.54-0.15,1.16,0.16,1.36,0.67l0.04,0.11
						c0.22,0.56,0.21,1.15-0.02,1.66l-7.89,17.62c-0.23,0.51-0.66,0.9-1.23,1.12l-0.11,0.04c-0.51,0.19-1.16-0.07-1.41-0.57
						L135.25,495.52z"/>
					
						<line fill="none" stroke="#00EBFF" stroke-width="0.5" stroke-linecap="round" stroke-linejoin="round" stroke-miterlimit="10" x1="135.08" y1="484.13" x2="131.28" y2="492.63"/>
					
						<line fill="none" stroke="#00EBFF" stroke-width="0.5" stroke-linecap="round" stroke-linejoin="round" stroke-miterlimit="10" x1="138.89" y1="475.63" x2="136.78" y2="480.34"/>
					
						<line fill="none" stroke="#00EBFF" stroke-width="0.5" stroke-linecap="round" stroke-linejoin="round" stroke-miterlimit="10" x1="141.53" y1="475.33" x2="136.01" y2="487.65"/>
					
						<line fill="none" stroke="#00EBFF" stroke-width="0.5" stroke-linecap="round" stroke-linejoin="round" stroke-miterlimit="10" x1="134.97" y1="489.96" x2="133.35" y2="493.6"/>
					
						<line fill="none" stroke="#00EBFF" stroke-width="0.5" stroke-linecap="round" stroke-linejoin="round" stroke-miterlimit="10" x1="143.06" y1="477.49" x2="140.11" y2="484.09"/>
					
						<line fill="none" stroke="#00EBFF" stroke-width="0.5" stroke-linecap="round" stroke-linejoin="round" stroke-miterlimit="10" x1="138.18" y1="488.4" x2="136.99" y2="491.05"/>
					
						<line fill="none" stroke="#00EBFF" stroke-width="0.5" stroke-linecap="round" stroke-linejoin="round" stroke-miterlimit="10" x1="136.25" y1="481.52" x2="135.83" y2="482.48"/>
					<g opacity="0.55">
						<path fill="#DBE2E8" d="M57.6,478.21c-4.43-8.72-5.62-19.27-1.71-28.44c0.45-1.05,0.93-2.09,1.45-3.12
							c-5.63,14.97,1.38,33.26,16.83,39.61c12.99,5.34,24.93,3.17,36.32-7.26c2.38-2.18,5.04-3.32,8.34-2.36
							c3.04,0.89,5.54,3.09,8.67,3.78c0.47,0.1,0.98,0.17,1.43,0.01c0.42-0.15,0.76-0.47,1.07-0.79c2.56-2.68,4.22-6.06,5.09-9.67
							c0.13,0.19,0.24,0.38,0.33,0.6c1.07,2.62-0.88,5.21-1.91,7.48c-1.23,2.7-2.46,5.4-3.69,8.1c-0.88,1.94-1.73,5.28-4.06,6
							c-2.24,0.79-4.62-1.14-6.72-1.72c-5.53-1.52-11.52,0.64-16.55,2.84c-5.77,2.53-11.73,3.91-18.07,3.36
							C72.66,495.59,62.9,488.64,57.6,478.21z"/>
					</g>
				</g>
			</g>
			<g>
				<g>
					<path fill="#DAE4E5" d="M482.13,486.47c0,2.28-15.75,4.13-35.19,4.13c-19.43,0-35.19-1.85-35.19-4.13
						c0-2.28,15.75-4.13,35.19-4.13C466.38,482.33,482.13,484.18,482.13,486.47z"/>
				</g>
				<g>
					<path fill="#DBE2E8" d="M482.89,474.23c3.42-6.4,4.46-14.2,1.7-21.06c-1.6-3.97-3.88-7.9-7.25-10.62
						c-2.94-2.38-6.42-4.1-10.05-5.14c-6.25-1.79-13.24-1.39-18.91,1.78c-4.74,2.65-8.25,7.03-10.61,11.86
						c-2.3,4.7-3.35,10.59-8.15,13.55c-1.37,0.85-3.63,1.16-4.33,2.78c-0.83,1.92,0.57,3.88,1.3,5.58c0.87,2.02,1.74,4.04,2.61,6.07
						c0.62,1.45,1.2,3.95,2.92,4.51c1.65,0.62,3.45-0.78,5.01-1.17c4.12-1.04,8.54,0.65,12.23,2.36c4.24,1.96,8.64,3.08,13.35,2.77
						C471.45,486.9,478.79,481.89,482.89,474.23z"/>
				</g>
				<path fill="none" stroke="#FFFFFF" stroke-miterlimit="10" d="M426.19,474.87c0,0,13.35-6.25,19.73-9.68
					c1.7-0.92,3.47-1.83,5.82-3.84c3.89-3.33,3.57-5.9,1.96-6.85c-2.03-1.21-4.27,1.07-4.3,4.09c-0.02,1.82,1.49,4.53,2.97,5.63
					c2.61,1.93,6.7,1.54,9.26,0.03c1.29-0.76,1.71-4.05-1.22-3.91c-2.05,0.09-7.91,4.29-6.65,7.79c0.66,1.84,2.13,3.32,3.86,4.21
					c1.37,0.7,3.77,1.11,5.28,0.66c2.99-0.91-0.21-3.9-1.83-4.35c-3.58-0.99-7.31-0.38-10.73,0.87c-8.17,2.98-14.49,5.54-22.6,8.67"
					/>
				
					<rect x="419.69" y="475.21" transform="matrix(0.3899 0.9209 -0.9209 0.3899 698.8932 -102.9677)" fill="#007FDD" width="14.92" height="1.47"/>
				<path fill="#00B8E5" d="M425.03,485.89c0.18-0.36,0.65-0.54,1.03-0.41l0.13,0.05c0.37,0.14,0.83-0.04,1.02-0.39l0.12-0.21
					c0.2-0.37,0.69-0.54,1.06-0.38c0.36,0.16,0.85,0,1.05-0.36l0.33-0.58c0.12-0.21,0.14-0.47,0.04-0.69l-5.78-13.66
					c-0.09-0.22-0.29-0.39-0.52-0.45l-0.65-0.16c-0.4-0.1-0.85,0.13-0.99,0.51c-0.14,0.38-0.61,0.61-1.01,0.5l-0.23-0.06
					c-0.38-0.11-0.83,0.1-0.99,0.46l-0.05,0.12c-0.16,0.37-0.62,0.57-1.01,0.46l-0.18-0.05c-0.39-0.12-0.87,0.1-1.02,0.48
					l-0.03,0.08c-0.17,0.42-0.17,0.85-0.01,1.23l5.58,13.19c0.16,0.38,0.48,0.68,0.89,0.85l0.08,0.03c0.38,0.15,0.86-0.03,1.05-0.4
					L425.03,485.89z"/>
				
					<line fill="none" stroke="#00EBFF" stroke-width="0.5" stroke-linecap="round" stroke-linejoin="round" stroke-miterlimit="10" x1="425.33" y1="477.44" x2="428.02" y2="483.81"/>
				
					<line fill="none" stroke="#00EBFF" stroke-width="0.5" stroke-linecap="round" stroke-linejoin="round" stroke-miterlimit="10" x1="422.63" y1="471.08" x2="424.13" y2="474.61"/>
				
					<line fill="none" stroke="#00EBFF" stroke-width="0.5" stroke-linecap="round" stroke-linejoin="round" stroke-miterlimit="10" x1="420.68" y1="470.82" x2="424.59" y2="480.04"/>
				
					<line fill="none" stroke="#00EBFF" stroke-width="0.5" stroke-linecap="round" stroke-linejoin="round" stroke-miterlimit="10" x1="425.32" y1="481.77" x2="426.47" y2="484.49"/>
				
					<line fill="none" stroke="#00EBFF" stroke-width="0.5" stroke-linecap="round" stroke-linejoin="round" stroke-miterlimit="10" x1="419.51" y1="472.4" x2="421.6" y2="477.33"/>
				
					<line fill="none" stroke="#00EBFF" stroke-width="0.5" stroke-linecap="round" stroke-linejoin="round" stroke-miterlimit="10" x1="422.97" y1="480.56" x2="423.81" y2="482.55"/>
				
					<line fill="none" stroke="#00EBFF" stroke-width="0.5" stroke-linecap="round" stroke-linejoin="round" stroke-miterlimit="10" x1="424.5" y1="475.49" x2="424.8" y2="476.21"/>
				<g opacity="0.55">
					<path fill="#DBE2E8" d="M482.89,474.23c3.42-6.4,4.46-14.2,1.7-21.06c-0.32-0.78-0.66-1.56-1.03-2.33
						c3.95,11.19-1.53,24.65-13.08,29.12c-9.71,3.76-18.53,1.97-26.82-5.93c-1.74-1.65-3.69-2.54-6.15-1.88
						c-2.27,0.61-4.16,2.21-6.48,2.67c-0.35,0.07-0.73,0.11-1.06-0.02c-0.31-0.12-0.56-0.36-0.78-0.61
						c-1.86-2.03-3.04-4.56-3.63-7.25c-0.1,0.14-0.19,0.28-0.25,0.44c-0.83,1.92,0.57,3.88,1.3,5.58c0.87,2.02,1.74,4.04,2.61,6.07
						c0.62,1.45,1.2,3.95,2.92,4.51c1.65,0.62,3.45-0.78,5.01-1.17c4.12-1.04,8.54,0.65,12.23,2.36c4.24,1.96,8.64,3.08,13.35,2.77
						C471.45,486.9,478.79,481.89,482.89,474.23z"/>
				</g>
			</g>
			<path fill="#FFE1B0" d="M200.1,229.19c-3.84,0-6.96-3.1-6.99-6.94c-0.25-32.84,9.89-51,20.89-65.73
				c2.31-3.09,6.69-3.74,9.79-1.42c3.09,2.31,3.73,6.69,1.42,9.79c-8.88,11.9-18.34,27.13-18.11,57.26
				c0.03,3.86-3.08,7.02-6.94,7.05C200.14,229.19,200.12,229.19,200.1,229.19z"/>
			<path fill="#FFE1B0" d="M242.23,143.88c-1.53,0-3.07-0.5-4.36-1.53c-3.02-2.41-3.51-6.81-1.11-9.83
				c3.27-4.09,6.43-6.07,7.03-6.42c3.32-1.96,7.61-0.86,9.58,2.47c1.95,3.3,0.87,7.55-2.39,9.53c-0.13,0.09-1.65,1.1-3.28,3.14
				C246.32,142.98,244.28,143.88,242.23,143.88z"/>
			<g>
				<g>
					<path fill="#DAE4E5" d="M270.59,521.46c0,4.69-20.9,8.5-46.68,8.5c-25.78,0-46.67-3.81-46.67-8.5c0-4.69,20.9-8.5,46.67-8.5
						C249.7,512.96,270.59,516.77,270.59,521.46z"/>
				</g>
				<g>
					<path fill="#767F82" d="M254.72,501.87h-40.76l20.34-6.63h41.33l-0.15,0.44l-19.65,6.02
						C255.47,501.81,255.1,501.87,254.72,501.87z"/>
					<path fill="#DBE2E8" d="M254.18,501.18h-39.84l19.96-5.94h40.41L255.28,501C254.93,501.12,254.55,501.18,254.18,501.18z"/>
					<path opacity="0.55" fill="#767F82" d="M250.93,500.18h-26.44l13.25-3.94h26.82l-12.89,3.82
						C251.43,500.14,251.18,500.18,250.93,500.18z"/>
					<path fill="#767F82" d="M275.63,495.24H234.3l5.21-22.85c0.25-0.75,1.01-1.27,1.88-1.27h37.26c1.3,0,2.23,1.13,1.86,2.25
						L275.63,495.24z"/>
					<path fill="#767F82" d="M274.7,495.24H234.3l5.21-22.85c0.25-0.75,1.01-1.27,1.88-1.27h36.33c1.3,0,2.23,1.13,1.86,2.25
						L274.7,495.24z"/>
					<path fill="#DBE2E8" d="M272.92,493.82h-36.46l4.69-21.26c0-0.01,0.01-0.01,0.02-0.01h36.44L272.92,493.82z"/>
					<g>
						<g>
							<polyline fill="none" stroke="#FFFFFF" stroke-width="0.5" stroke-linecap="round" stroke-linejoin="round" points="
								268.98,490.06 268.76,491.04 267.76,491.04 							"/>
							
								<line fill="none" stroke="#FFFFFF" stroke-width="0.5" stroke-linecap="round" stroke-linejoin="round" stroke-dasharray="1.9935,2.4919" x1="265.27" y1="491.04" x2="244.09" y2="491.04"/>
							<polyline fill="none" stroke="#FFFFFF" stroke-width="0.5" stroke-linecap="round" stroke-linejoin="round" points="
								242.85,491.04 241.85,491.04 242.06,490.06 							"/>
							
								<path fill="none" stroke="#FFFFFF" stroke-width="0.5" stroke-linecap="round" stroke-linejoin="round" stroke-dasharray="1.9072,2.3839" d="
								M242.57,487.73l2.73-12.4c0-0.01,0.01-0.01,0.01-0.01h24.72"/>
							<polyline fill="none" stroke="#FFFFFF" stroke-width="0.5" stroke-linecap="round" stroke-linejoin="round" points="
								271.23,475.32 272.23,475.32 272.01,476.3 							"/>
							
								<line fill="none" stroke="#FFFFFF" stroke-width="0.5" stroke-linecap="round" stroke-linejoin="round" stroke-dasharray="1.761,2.2013" x1="271.54" y1="478.45" x2="269.22" y2="488.98"/>
						</g>
					</g>
					
						<line fill="none" stroke="#DBE2E8" stroke-width="0.5" stroke-miterlimit="10" x1="224.49" y1="499.1" x2="257.65" y2="499.1"/>
					
						<line fill="none" stroke="#DBE2E8" stroke-width="0.25" stroke-miterlimit="10" x1="230.61" y1="497.4" x2="263.77" y2="497.4"/>
					<g>
						<path fill="#F39F86" d="M221.06,496.99c1.39-1.15,3.82-1.42,5.61-1.67c1.78-0.25,3.59-0.16,5.39-0.08
							c1.04,0.05,0.77,1.25-0.12,1.4c-1.02,0.17-2.06,0.19-3.09,0.05c-0.64,0.91-1.65,1.5-2.72,1.8c-1.07,0.3-2.19,0.34-3.3,0.31
							c-0.31-0.01-0.7-0.08-0.77-0.39"/>
					</g>
					<g>
						
							<line fill="none" stroke="#FFFFFF" stroke-width="0.25" stroke-miterlimit="10" x1="264.6" y1="483.28" x2="257.02" y2="475.69"/>
						<path fill="#FFFFFF" d="M264.53,483.2c0.14-0.14,0.38-0.14,0.52,0c0.14,0.14,0.14,0.38,0,0.52c-0.14,0.14-0.38,0.14-0.52,0
							C264.38,483.58,264.38,483.35,264.53,483.2z"/>
						<path fill="#FFFFFF" d="M261.68,485.79c0.14-0.14,0.38-0.14,0.52,0c0.14,0.14,0.14,0.38,0,0.52c-0.14,0.14-0.38,0.14-0.52,0
							C261.53,486.17,261.53,485.93,261.68,485.79z"/>
						<path fill="#FFFFFF" d="M253.81,477.92c0.14-0.14,0.38-0.14,0.52,0c0.14,0.14,0.14,0.38,0,0.52c-0.14,0.14-0.38,0.14-0.52,0
							C253.66,478.3,253.66,478.06,253.81,477.92z"/>
						<path fill="#FFFFFF" d="M256.76,475.43c0.14-0.14,0.38-0.14,0.52,0c0.14,0.14,0.14,0.38,0,0.52c-0.14,0.14-0.38,0.14-0.52,0
							C256.61,475.81,256.61,475.58,256.76,475.43z"/>
						<path fill="none" stroke="#FFFFFF" stroke-width="0.25" stroke-miterlimit="10" d="M254.07,478.18c0,0,3.7-1.73,6.65,1.22
							c2.95,2.95,1.22,6.65,1.22,6.65"/>
						<g>
							<g>
								<path fill="#FFFFFF" d="M255.81,480.14l4.89-0.76l-3.77,4.07c-0.43-0.42-1.13-0.42-1.55,0.01c-0.43,0.43-0.43,1.13,0,1.56
									c0.43,0.43,1.13,0.43,1.56,0c0.43-0.43,0.43-1.13,0-1.56l-0.01-0.01l3.95-3.88c0,0-0.58,3.38-0.77,5.06
									c-1.22,0.57-4.99,2.92-5.93,3.62c-0.19,0.14-2.24-1.98-2.16-2.09C253.32,484.54,255.81,480.14,255.81,480.14z"/>
							</g>
						</g>
						<g>
							<path fill="#FFFFFF" d="M250.52,485.97l0.82-0.82c0.15-0.15,0.4-0.15,0.56,0l3.3,3.3c0.15,0.15,0.15,0.38,0.02,0.54
								c0,0.01-0.01,0.01-0.02,0.02l-0.82,0.82c-0.15,0.15-0.4,0.15-0.56,0l-3.3-3.3C250.37,486.38,250.37,486.13,250.52,485.97z"/>
						</g>
					</g>
				</g>
				<g>
					<path fill="#023D5F" d="M190.76,499.87c-0.82,2.86-0.64,5.17-1.18,8.1c-0.81,4.37-1.13,9.39,1.81,12.72
						c2.13,2.41,3.99,3.31,7.21,3.36c2.71,0.04,5.39-0.44,8.1-0.51c1.82-0.05,7.38,0.44,9.19,0.52c8.1,0.32,12.69-1.47,20.7-2.46
						c5.55-0.69,15.67-2.75,21.06-4.23c20.75-5.68,13.23-14.05,8.65-15.38c-1-0.29-5.52-1.8-5.52-1.8l-6.06,1.69H233.5
						c0,0-8.85-0.41-12.64-1.3"/>
				</g>
				<g>
					<path fill="#F39F86" d="M251.29,488.43c0.46,0.24,0.85,0.57,1.27,0.86c0.87,0.6,1.88,1.01,2.89,1.42
						c0.97,0.39,1.94,0.79,2.91,1.18c0.2,0.08,0.41,0.17,0.56,0.32c0.22,0.22,0.29,0.55,0.35,0.86c0.6,3.05,1.2,6.21,0.4,9.42
						c-0.74-1.03-1.31-2.17-1.7-3.4c-0.19-0.6-0.35-1.24-0.8-1.66c-0.26-0.25-0.61-0.4-0.93-0.59c-1.04-0.6-1.81-1.53-2.57-2.44
						c-0.19-0.23-0.38-0.46-0.42-0.76c-0.02-0.11-0.01-0.22-0.06-0.31c-0.05-0.09-0.13-0.15-0.22-0.2c-1.2-0.77-2.39-1.54-3.59-2.3"
						/>
				</g>
				<path fill="#2B99FF" d="M194.27,499.87c-1.67-1.23-3.49-2.62-5.22-4.06c-3.94-3.31-7.45-6.9-7.89-9.51
					c-0.96-5.86-0.21-23.28,0.26-31.5c0.01-0.5,0.04-0.96,0.07-1.4c0.47-7.77,4.64-11.21,6.73-12.47c1.07,10.1,3.47,32.9,3.67,34.07
					C192.15,476.5,194.27,499.87,194.27,499.87z"/>
				<path fill="#007FDD" d="M194.27,499.87c-1.67-1.23-3.49-2.62-5.21-4.06c-0.15-6.42-2.49-5.03-5.18-16.25
					c-3.19-14.15-0.76-27.12-0.76-27.12l6.42,0.98c1.07,9.99,2.22,20.79,2.36,21.58C192.15,476.5,194.27,499.87,194.27,499.87z"/>
				<path fill="#F39F86" d="M198.27,436.41c0,0,1.37-4.66,0.77-8.09c-0.6-3.44-2.66-9.62-1.89-14.26c0.77-4.64,6.62-8.51,12.8-7.91
					c6.19,0.6,7.99,6.53,9.02,9.97c1.03,3.44,0.86,8.68,0.6,11.51c-0.26,2.84-1.8,5.07-2.84,5.67c-1.03,0.6-4.91-0.19-5.59,0.55
					c-0.68,0.74-1.2,5.12-1.2,5.12"/>
				<path fill="#2B99FF" d="M195.34,440.09c0,0,0.34-2.72,1.37-3.68c1.03-0.96,7.91-0.96,9.97-0.7c2.06,0.26,7.15,2.63,7.82,3.13
					c0.67,0.5-0.65,3.11-0.65,3.11L195.34,440.09z"/>
				<path fill="#023D5F" d="M198.52,430.55c0,0,8.59,0.73,10.23,0c1.63-0.73,4-2.32,4.21-5.24c0.21-2.92-0.39-3.82,0.73-5.46
					c1.12-1.63,2.1-1.07,2.28,0.47c0.17,1.55,0.24,4.34,0.64,4.55c0.55,0.28,1.2-1.69,0.99-4.67c-0.18-2.59-0.47-4.6-1.25-6.32
					c-0.77-1.72-1.19-1.62-1.89-1.93c0.75-0.37,1.56-0.41,3.05-2.73c1.72-2.69,0.77-6.87-3.78-6.85
					c-7.96,0.03-16.41,1.59-16.58,7.48c0,0-2.79-0.43-2.88,4.94c-0.09,5.37,3.35,11.86,3.61,13.53
					C198.14,429.99,197.66,430.16,198.52,430.55z"/>
				<path fill="#2B99FF" d="M222.41,493.68c0.32,2.69,2.68,6.85,1.07,7.44c-0.65,0.23-3.28,0.08-6.49-0.2h-0.09
					c-0.06,0-0.11-0.01-0.15-0.01c-2.86-0.24-6.12-0.56-8.85-0.77c-10.93-0.47-16.5,1.71-17.6,1.1c-0.53-0.32-0.54-1.26-0.38-2.24
					c0.38-2.4,0.5-4.82,0.18-7.24c-0.27-2.03-0.65-4.45-1.17-7.21c-1.8-9.57-5.34-24.2-5.86-32.99
					c-0.84-13.78,13.92-12.47,13.92-12.47c18.79-1.17,27.61,4.24,28.63,12.31c0.08,0.57,0.12,1.19,0.17,1.83
					c0.48,8.33-2.06,21.76-3.26,31.8C222.18,487.79,222.24,490.99,222.41,493.68z"/>
				<path fill="#007FDD" d="M222.41,493.68c0.32,2.69,2.68,6.85,1.07,7.44c-0.65,0.23-3.28,0.08-6.49-0.2
					c2.9,0.21,3.44-2.01,2.8-3.5c-0.65-1.5-1.98-4.88-1.86-8.9c0.14-4,1.64-13.02,2.52-21.54c0.84-7.92,0.12-14.11,0.01-14.94
					c0.45,0.9,1.74,2.16,5.38,3.01c0.08,8.37-2.21,20.63-3.32,29.97C222.18,487.79,222.24,490.99,222.41,493.68z"/>
				<path fill="#2B99FF" d="M213.17,440.93c0,0,8.61-0.69,12.4,2.49c3.02,2.54,8.84,34.67,8.84,34.67l-8.04,3.33
					c0,0-8.76-21.96-11.04-21.62"/>
				<path fill="#2B99FF" d="M226.04,480.62c2.73,8.65,25.03,11.92,25.03,11.92l1.24-3.97c0,0-13.62-10.14-18.53-11.52"/>
				<g>
					<g>
						<path fill="#062F44" d="M254.84,502.12c0.99,0.06,1.99,0.12,2.98,0.2c0.49,0.04,0.97,0.08,1.46,0.12
							c0.23,0.02,0.47,0.04,0.7,0.07c0.27,0.03,0.55,0.09,0.82,0.05c0.13-0.02,0.18-0.2,0.03-0.25c-0.44-0.14-0.97-0.11-1.43-0.14
							c-0.51-0.04-1.01-0.08-1.52-0.11c-1.01-0.07-2.02-0.13-3.04-0.19C254.68,501.87,254.68,502.11,254.84,502.12L254.84,502.12z"
							/>
					</g>
				</g>
				<g>
					<path fill="#062F44" d="M249.62,518.88c-7.39-0.36-14.7,1.4-22.02,2.48c-7.32,1.08-15.08,1.41-21.84-1.61
						c-0.57-0.25-1.16-0.54-1.78-0.49c-0.7,0.05-1.3,0.5-1.87,0.91c-1.21,0.87-2.53,1.63-3.99,1.94c-2.06,0.43-2.65-0.08-4.73-0.42
						c-0.2-0.03-0.43-0.06-0.61,0.04c-0.05,0.03-0.06,0.08-0.09,0.12c2.08,1.53,3.28,2.16,5.9,2.2c2.71,0.04,5.39-0.44,8.1-0.51
						c1.82-0.05,7.38,0.44,9.19,0.52c8.1,0.32,12.69-1.47,20.7-2.46c3.33-0.41,8.29-1.32,12.89-2.3
						C249.55,519.17,249.61,519.04,249.62,518.88z"/>
				</g>
			</g>
			<g>
				<g>
					<g>
						<path fill="#2B99FF" d="M458.23,224.36c-1.1-0.76-2.31-1.32-3.58-1.67c-1.86-0.52-0.92-1.9-2.85-1.57
							c-3.67,0.62-12.13,2.31-17.26,3.72c-0.05,0.01-0.09,0.01-0.14,0.03c-2.58,0.63-3.45,0-3.45,0l-1.08,1.22l0.14,0.43
							c-0.77,0.61-1.45,1.55-1.59,2.98c-0.02,0.27-0.29,1.31-0.4,2.33c-0.12,0.94-0.11,1.88,0.29,2.23
							c0.01,0.01,0.01,0.01,0.02,0.02c0.05,0.02,0.1,0.04,0.15,0.05c1.67,0.71,4.14,0.63,4.75,0.66c2.69,0.15,9.07-0.66,14.93-1.44
							c3.65-0.49,7.11-0.96,9.34-1.2c0.85-0.1,1.66-0.46,2.26-1.03c0.55-0.49,0.95-1.15,1.11-1.92
							C461.31,227.18,459.95,225.56,458.23,224.36z"/>
						<g>
							<path fill="#2B99FF" d="M433.95,231.83c-0.15,0.4-0.34,0.74-0.56,1.04c-0.11,0.13-0.22,0.26-0.33,0.37
								c-3.8,3.8-8.59,0-11.36-2.23c-3.96-3.18-8.64-8.76-12.32-12.26c-0.12-0.11-1.47-1.27-1.32-1.47c0,0,3.38-4.44,3.38-4.44
								s9.1,8.25,14.45,10.12c2.34,0.82,4.64,1.56,6.23,2.54c0.21,0.12,0.39,0.24,0.57,0.38
								C432.7,225.87,435.1,228.62,433.95,231.83z"/>
							<path fill="#007FDD" d="M448.17,233.35c-5.86,0.78-12.25,1.59-14.93,1.44c-0.61-0.02-3.08,0.05-4.75-0.66
								c-0.05-0.01-0.1-0.02-0.15-0.05c-0.01-0.01-0.01-0.01-0.02-0.02c-3.52-1.49-5.68-4.8-0.29-2.23c1.36,0.65,2.44,1.1,3.04,1.23
								c0.53,0.11,1.21,0.17,2,0.18c0.1,0,0.2,0,0.3,0C438.33,233.22,452.85,222.34,448.17,233.35z"/>
						</g>
						<g>
							<path fill="#2B99FF" d="M471.94,254.39c-1.09,2.82-1.35,5.9-0.69,8.85c1.3,5.87-0.18,6.26-0.18,6.26s-7.95,5.05-14.57,7.11
								c-4.74,1.47-8.78,1.23-8.67-4.01l0-0.07c0.01-0.32,0.02-0.62,0.02-0.92c0.22-11.76-2.23-12.36-2.83-25.53
								c-0.62-13.51-0.49-21.51,3.84-23.69c4.71-2.37,11.2-4.01,20.4-1.83c6.91,1.63,9.19,3.46,9.13,8.58
								c-0.02,1.7-0.29,3.76-0.74,6.29C476.51,241.86,473.79,249.59,471.94,254.39z"/>
							<path fill="#007FDD" d="M471.94,254.39c-1.09,2.82-1.35,5.9-0.69,8.85c1.3,5.87-0.18,6.26-0.18,6.26s-7.95,5.05-14.57,7.11
								l-6.18-0.59l-2.47-1.94l-0.01-1.55c0.01-0.32,0.02-0.62,0.02-0.92c1.41,0.13,4.62,0.3,9.33-0.24
								c3.64-0.41,6.95-1.45,9.15-2.29c1.61-0.61,2.55-2.27,2.25-3.96c-0.4-2.31-0.87-5.63-0.86-8.2c0.02-2.59,1.22-6.97,2.2-10.12
								c0.75-2.42,1-4.96,0.82-7.49c-0.31-4.37,0.01-8.53,0.01-8.53l4.9-2.65l2.73,1.02c-0.02,1.7-0.29,3.76-0.74,6.29
								C476.51,241.86,473.79,249.59,471.94,254.39z"/>
							<g>
								<path fill="#023D5F" d="M451,200.67c0,0-3.07-3.38-2.62-8.24c0.26-2.84,1.14-5.6,5.39-6.62c2.33-0.56,5.64,1.19,8.01,3.83
									c7.39,0.62,9.8,5.71,10.1,11.49l-8.68-1.94L451,200.67z"/>
								<path fill="#F39F86" d="M470.31,204.39c-0.17,6.62-5.88,10.46-5.88,10.46l0.38,6.03l-3.85,2.5l-2.64,1.71l-1.52-3.17
									l-0.21-3.89c-0.05-0.9-0.7-1.66-1.59-1.85c-0.99-0.21-2.36-0.79-3.76-2.27c-0.08-0.09-0.17-0.19-0.24-0.3
									C451,213.6,451,213.6,451,213.6c-2.5-3.41-3.45-16.48,5.12-20.19C464.97,189.58,470.48,197.76,470.31,204.39z"/>
							</g>
							<path fill="#16405A" d="M455.25,225.45c0,0-3.78,23.5-2.35,34.75l2.64,4.8l2.89-5.24c0,0-2.76-19.63-1.24-33.92
								L455.25,225.45z"/>
							<path fill="#103649" d="M454.75,223.45l0.04,0.31c0.07,0.58,0.23,1.15,0.46,1.69l0,0l1.94,0.4l1.69-1.26l-1.94-2.25
								l-0.3,0.08c-0.69,0.18-1.33,0.53-1.86,1.01L454.75,223.45z"/>
							<path fill="#007FDD" d="M464.77,218.06c0,0,0.93,0.52,1.86,1.91c0,0-1.27,0.57-2.38,1.25c-1.01,0.62-5.87,4.05-5.87,4.05
								l-1.43-2.94C456.94,222.34,462.02,218.83,464.77,218.06z"/>
							<path fill="#007FDD" d="M456.94,222.34c0,0-1.7,0.58-2.22,1.85c0,0-0.87-1.67,0.24-4.64c0,0,0.93-0.88,1.65-1.2
								L456.94,222.34z"/>
						</g>
						<g opacity="0.5">
							<g>
								<path fill="#DAE4E5" d="M429.38,384.8c0,2.78,16.99,5.03,37.95,5.03c20.96,0,37.94-2.25,37.94-5.03
									c0-2.78-16.99-5.04-37.94-5.04C446.37,379.77,429.38,382.02,429.38,384.8z"/>
							</g>
						</g>
						<g>
							<path fill="#F39F86" d="M449.37,378.19c0,0-0.67,1.73-0.59,2.86c0.08,1.14,3.7,1.22,4.12,0.63c0.42-0.59,0.63-5.81,0.63-5.81
								"/>
							<path fill="#3A3A3A" d="M453.86,382.68c0,1.18-0.33,3.11-0.33,3.11h-4.17l-0.21-0.7c0,0-1.35,0.7-2.41,0.7h-3.52
								c-2.58,0-4.04-0.33-4.1-0.78c-0.27-1.89,2.81-1.81,3.61-1.81c2.3,0,4.79-1.08,5.34-2.25c0.39-0.85,0.22-1.06,0.7-0.9
								c0,0,0.43,0.09,0.71,0.62c0.44,0.81,1.27,1.35,2.17,1.19c0.52-0.09,1.03-0.29,1.41-0.68
								C453.05,381.18,453.86,381.5,453.86,382.68z"/>
						</g>
						<g>
							<path fill="#F39F86" d="M489.94,374.25c0,0,0.77,3.05,1.27,4.08c0.5,1.02,3.89-0.24,4.06-0.94c0.17-0.7-1.56-5.63-1.56-5.63"
								/>
							<path fill="#3A3A3A" d="M496.53,377.97c0.44,1.1,1.09,3.23,1.09,3.23l-3.16,1.89l-0.62-0.47c0,0-0.7,1.13-1.66,1.74
								c-0.72,0.45-2.3,1.11-3.13,1.3c-2.89,0.66-5.12,0.34-5.35-0.06c-0.95-1.66,2.87-2.57,3.62-2.87
								c2.14-0.85,3.12-2.92,3.19-4.21c0.05-0.93-0.19-1.07,0.31-1.1c0,0,0.43-0.07,0.89,0.31c0.71,0.59,1.68,0.78,2.46,0.3
								c0.45-0.28,0.85-0.65,1.06-1.15C495.23,376.87,496.09,376.87,496.53,377.97z"/>
						</g>
						<g>
							<path fill="#023D5F" d="M475.29,292.92c0,0,5.67-13.57-4.22-23.42c0,0-8.43,3.77-15.19,4.23c-5.32,0.36-8.02-0.19-8.02-0.19
								s-1.2,9.88-0.54,25.36L475.29,292.92z"/>
							<path fill="#023D5F" d="M454.03,379.5c-0.17,0.01-0.34,0.01-0.5,0.01c-3.52,0.04-5.52-0.38-5.52-0.38v-1.01
								c0.2-15.53-1.69-40.92-2.05-48.94c-0.02-0.56-0.01-1.07,0.05-1.54c0.61-5.87,6.68-5.1,9.23,0.29
								c0.6,1.26,1.07,2.65,1.44,4.15c0.45,1.81,0.76,3.77,0.94,5.86C458.8,351.35,455.07,369.48,454.03,379.5z"/>
							<path fill="#023D5F" d="M464.56,299.18c-0.02,0.16-0.06,0.33-0.1,0.5c-1.34,7.07-5.7,26.18-7.78,32.39v0.01
								c-0.31,0.87-1.34,1.6-2.67,1.95c-3.05,0.83-7.61-0.31-8-6.4c-0.05-0.67-0.04-1.4,0.02-2.2c0.4-4.95,1.49-32.28,1.71-34.91
								c0.21-2.64,0.68-6.48,2.08-6.97C456.77,281.14,466.38,289.29,464.56,299.18z"/>
							<path fill="#062F44" d="M458.07,327.31c2.23-8.27,5.3-21.9,6.39-27.63l-1.48-6.56l-7.11-8.52l-3.97-0.55
								c0,0,0.65,12.88,5.29,23.12c0,0-0.05,14.53-1.95,20.76l-1.71,4.79c0,0,0.2,0.46,0.48,1.32c0.95,2.87,2.91,10.14,1.81,18.62
								c-1.42,10.99-2.28,26.85-2.28,26.85c0.16,0,0.33,0,0.5-0.01c1-9.67,4.51-26.91,3.68-40.16c0.04-0.2,0.02-0.64-0.09-1.4
								C456.88,332.69,458.07,327.31,458.07,327.31L458.07,327.31z"/>
							<path fill="#023D5F" d="M478.4,327.53c-4.7-4.43-11.25-2.33-8.19,4.54c3.27,7.34,13.37,27.73,18.85,42.26l0.38,0.95
								c0,0,2.2-0.38,5.73-1.86c-2.61-9.43-4.5-25.69-9.92-37.02C483.51,332.76,480.84,329.82,478.4,327.53z"/>
							<g>
								<g>
									<path fill="#023D5F" d="M451.9,284.05c-0.91-10.92,12.7-3.67,19.23-0.06c2.75,1.52,3.75,4.56,4.12,7.42
										c0.37,2.86,3.9,32.3,4.61,37.67c1.6,12.11-8.98,5.49-9.98,2.13C467.36,322.74,452.4,290.01,451.9,284.05z"/>
								</g>
							</g>
							<path fill="#023D5F" d="M478.93,321.57c0,0,0.43,5.79,5.3,12.94c0,0-7.96-3.68-8.35-4.22c-0.39-0.54-1.78-6.15-1.62-6.75
								C474.41,322.95,478.93,321.57,478.93,321.57z"/>
						</g>
						<g>
							<g>
								<path fill="#FFFFFF" d="M385.81,187.16c6.1-3.72,7.86-7.31,7.86-7.31s0.16-0.93,0.14-2.29c-0.04-2.88-0.92-7.68-5.93-9.53
									c-7.39-2.71-12.16,2.29-17.26-6.56c0,0,0.01,0.05,0.02,0.14C371.95,169.87,370.66,187.22,385.81,187.16z"/>
								<path fill="#FFE7C5" d="M385.81,187.16c6.1-3.72,7.86-7.31,7.86-7.31s0.16-0.93,0.14-2.29
									c-17.04,16.05-22.76-13.69-23.16-15.95C371.95,169.87,370.66,187.22,385.81,187.16z"/>
								<g>
									<path fill="#FFE7C5" d="M370.65,161.61c0.98,2.55,2.67,4.77,4.76,6.47c1.05,0.84,2.19,1.59,3.44,2.02
										c1.25,0.46,2.59,0.64,3.94,0.82c1.35,0.17,2.72,0.36,4.05,0.86c1.3,0.54,2.49,1.38,3.34,2.51c0.86,1.11,1.4,2.46,1.55,3.84
										c0.15,1.38-0.07,2.78-0.57,4.05c0.77-2.6,0.39-5.57-1.36-7.59c-0.83-1.03-1.94-1.81-3.16-2.29
										c-1.24-0.44-2.59-0.6-3.93-0.81c-1.35-0.2-2.73-0.41-4.04-0.91c-1.31-0.51-2.46-1.31-3.51-2.21
										C373.07,166.58,371.46,164.22,370.65,161.61z"/>
								</g>
								<g>
									<path fill="#FFE7C5" d="M370.65,161.61c0.6,2.48,1.59,4.85,2.92,7c1.34,2.13,3.04,4.06,5.16,5.42
										c1.05,0.7,2.19,1.16,3.37,1.71c1.16,0.56,2.29,1.2,3.32,2c1.02,0.8,1.91,1.8,2.51,2.96c0.59,1.16,0.83,2.48,0.79,3.75
										c-0.1-1.27-0.42-2.52-1.07-3.6c-0.63-1.08-1.52-1.99-2.54-2.72c-1-0.75-2.11-1.36-3.26-1.89c-1.14-0.5-2.38-0.99-3.45-1.74
										c-2.17-1.45-3.95-3.43-5.21-5.67C371.93,166.59,371.04,164.14,370.65,161.61z"/>
								</g>
							</g>
							<g>
								<path fill="#007FDD" d="M484.41,296.35c-0.39-0.02-0.77-0.11-1.15-0.25c-4.39-1.71-5.54-11.6-5.65-12.72l-0.13-1.28
									l1.22,0.39c1.08,0.35,10.6,3.53,11.5,8.01c0.29,1.46-0.3,2.83-1.77,4.09C487.03,295.83,485.68,296.42,484.41,296.35z
									 M479.45,284.53c0.51,3.31,1.89,9.02,4.42,10c0.97,0.37,2.13-0.03,3.46-1.21c0.99-0.85,1.39-1.66,1.23-2.49
									C488.03,288.24,482.62,285.72,479.45,284.53z"/>
							</g>
							<g>
								
									<rect x="430.1" y="169.74" transform="matrix(0.7486 -0.663 0.663 0.7486 -46.4951 347.8799)" fill="#FFC25B" width="10.73" height="131.02"/>
								
									<rect x="385.47" y="182.9" transform="matrix(0.7486 -0.663 0.663 0.7486 -24.248 305.5914)" fill="#FFA92C" width="10.73" height="3.74"/>
							</g>
							
								<rect x="430.1" y="169.74" transform="matrix(0.7486 -0.663 0.663 0.7486 -46.4951 347.8799)" fill="#FC9549" width="10.73" height="131.02"/>
							
								<rect x="385.47" y="182.9" transform="matrix(0.7486 -0.663 0.663 0.7486 -24.248 305.5914)" fill="#0B0B3A" width="10.73" height="3.74"/>
							<polygon opacity="0.2" fill="#71606E" points="477.87,285.16 474.82,287.85 388.06,189.71 385.58,186.91 388.61,184.2 
								391.09,187 							"/>
							
								<rect x="472.79" y="282.49" transform="matrix(0.7486 -0.663 0.663 0.7486 -67.7814 388.3311)" fill="#007FDD" width="10.73" height="2.09"/>
						</g>
						<g>
							<path fill="#F39F86" d="M467.29,273.28l-2.82-2.35c0,0-1.07,1.38-1.6,1.55c-0.14,0.04-0.44-0.07-0.59-0.07
								c-0.8,0-1.29,0.25-2.28,0.71c-0.66,0.3-1.54,0.58-1.58,0.85c-0.04,0.27,0.43,0.69,0.89,0.65c0.06,0,0.14-0.02,0.23-0.05
								c0,0.08,0.01,0.16,0.05,0.28c0.19,0.59,2.96,4.46,5.72,0.25C465.93,274.15,467.29,273.28,467.29,273.28z"/>
							<path fill="#2B99FF" d="M469.83,236c1.26,3.86,2.59,9.96,5.12,15.13c0.05,0.12,0.11,0.23,0.16,0.32
								c0.01,0.03,0.03,0.04,0.04,0.07c0,0,0.05,0.23,0.19,0.57c0.46,1.07,1.7,3.24,4.51,3.09c0.14,0,0.5,0.01,0.96,0.04
								c0.55,0.03,1.24,0.04,1.88,0c0.78-0.05,1.47-0.2,1.7-0.59c0.01,0,0.01-0.01,0.01-0.01c0.03-0.08,0.07-0.22,0.09-0.39
								c0.01-0.07,0.04-0.14,0.04-0.22c0.03-0.07,0.03-0.15,0.04-0.23c0.03-0.22,0.04-0.43,0.05-0.65c0.01-0.11,0.01-0.22,0.01-0.32
								c0.03-1.38-0.22-2.73-0.26-3.16c-0.4-4.35-4.7-17.95-6.16-23.62c-0.22-0.84-0.69-1.58-1.34-2.09
								c-0.57-0.47-1.27-0.77-2.04-0.81c-0.01,0-0.01,0-0.03-0.01c-0.11,0-0.22-0.01-0.32,0c-1.9,0.05-3.21,1.55-4.09,3.35
								c-0.58,1.19-0.97,2.47-1.12,3.77C469.03,232.14,469.23,234.14,469.83,236z"/>
							<path fill="#2B99FF" d="M463.29,271.66l2.38,2.15l0.01,0.01l0.62,0.54c0,0,4.82-4.18,8.57-7.72
								c3.47-3.29,7.01-6.96,9.21-11.37c0.11-0.2,0.22-0.43,0.31-0.63c0-0.01,0-0.01,0-0.03c0.03-0.08,0.07-0.22,0.09-0.39
								c0.01-0.07,0.04-0.14,0.04-0.22c0.03-0.07,0.03-0.15,0.04-0.23c0.03-0.22,0.04-0.43,0.05-0.65c0.01-0.11,0.01-0.22,0.01-0.32
								c-0.01-0.82-0.22-1.75-0.88-2.54c-0.05-0.07-0.12-0.14-0.18-0.2c-0.26-0.26-0.57-0.49-0.94-0.69
								c-0.23-0.12-0.47-0.23-0.7-0.3c-2.78-0.97-5.37,0.73-5.37,0.73c-0.15,0.15-0.31,0.31-0.46,0.49c-0.32,0.35-0.66,0.74-1,1.16
								c-0.93,1.19-1.86,2.63-2.59,4.33C470.22,261.09,463.29,271.66,463.29,271.66z"/>
						</g>
						<path fill="#023D5F" d="M449.95,196.32c0,0,5.69-1.13,10.06,1.21c2.25,1.21,4.93,1.32,7.24,0.24l1.64-0.77
							c0,0-1.62-1.88-1.87-2.05c-0.25-0.17-1.64-1.75-2.49-2.11c-0.85-0.35-4.41-1.5-4.86-1.58c-0.45-0.07-1.72-0.19-2.85,0.01
							c-1.13,0.2-1.65,0.48-2.23,0.75c-0.57,0.28-2.22,1.31-2.22,1.31L449.95,196.32z"/>
					</g>
					<path fill="#F39F86" d="M408.89,216.19c0,0-4.09-3.56-4.3-6.07c-0.23-2.76,1.71-4.09,2.99-2.57c2.01,2.4,1.65,6.32,1.65,6.32
						l0.76,0.89L408.89,216.19z"/>
					<path fill="#007FDD" d="M465.67,273.81l0.01,0.01l0.62,0.54c0,0,4.82-4.18,8.57-7.72c3.47-3.29,7.01-6.96,9.21-11.37
						c0.11-0.2,0.22-0.43,0.31-0.63c0-0.01,0-0.01,0-0.03c0.03-0.08,0.07-0.22,0.09-0.39c0.01-0.07,0.04-0.14,0.04-0.22
						c0.03-0.07,0.03-0.15,0.04-0.23c0.03-0.22,0.04-0.43,0.05-0.65c0.01-0.11,0.01-0.22,0.01-0.32c0.03-1.38-0.22-2.73-0.26-3.16
						c-0.4-4.35-4.7-17.95-6.16-23.62c-0.22-0.84-0.69-1.58-1.34-2.09c-0.57-0.47-1.27-0.77-2.04-0.81c-0.01,0-0.01,0-0.03-0.01
						c-0.11,0-0.22-0.01-0.32,0c0.9,1.46,2.19,4.4,3.63,10.3c1.92,7.87,3.27,12.62,3.81,15.67c0.27,1.4,0.35,2.46,0.24,3.28
						c-0.07,0.51-0.57,1.53-1.38,2.86C477.49,260.7,469.1,271.46,465.67,273.81z"/>
					<path fill="#023D5F" d="M464.43,214.85c0,0-0.56-2.04-0.62-4.91c0,0,2.81-1.98,2.81-4.01c0-2.82-3.14,0-3.14,0
						s-0.65-2.03-0.8-3.97c-0.25-3.16,5.06-5.48,5.06-5.48l2.78,2.02l1.34,2.63C471.88,201.13,472,212.16,464.43,214.85z"/>
				</g>
			</g>
			<g>
				<g>
					<path fill="#FF703D" d="M365.8,291.8l-34.31,19.77c-0.46,0.26-1.04,0.1-1.3-0.35l-2.72-4.73c-0.26-0.46-0.11-1.04,0.35-1.3
						l34.31-19.77c0.45-0.26,1.04-0.1,1.3,0.35l2.72,4.73C366.41,290.96,366.25,291.54,365.8,291.8z"/>
					<g opacity="0.55">
						<g>
							<path fill="#AFD4DD" d="M361.36,287.8c-0.08,0.05-0.18,0.02-0.22-0.06l-0.76-1.32l0.28-0.16l0.76,1.32
								C361.47,287.65,361.44,287.75,361.36,287.8z"/>
							<path fill="#AFD4DD" d="M360.32,287.31c-0.04,0.02-0.09,0.01-0.11-0.03l-0.33-0.57l0.14-0.08l0.33,0.57
								C360.37,287.23,360.36,287.28,360.32,287.31z"/>
						</g>
						<g>
							<path fill="#AFD4DD" d="M360.16,288.49c-0.08,0.04-0.18,0.02-0.22-0.06l-0.76-1.32l0.28-0.16l0.76,1.32
								C360.26,288.35,360.24,288.45,360.16,288.49z"/>
							<path fill="#AFD4DD" d="M359.11,288c-0.04,0.02-0.09,0.01-0.11-0.03l-0.33-0.57l0.14-0.08l0.33,0.57
								C359.16,287.93,359.15,287.98,359.11,288z"/>
						</g>
						<g>
							<path fill="#AFD4DD" d="M358.96,289.18c-0.08,0.04-0.18,0.02-0.23-0.06l-0.76-1.32l0.29-0.16l0.76,1.32
								C359.06,289.04,359.03,289.14,358.96,289.18z"/>
							<path fill="#AFD4DD" d="M357.91,288.69c-0.04,0.02-0.09,0.01-0.11-0.03l-0.33-0.57l0.14-0.08l0.33,0.57
								C357.96,288.62,357.95,288.67,357.91,288.69z"/>
						</g>
						<g>
							<path fill="#AFD4DD" d="M357.75,289.88c-0.08,0.04-0.18,0.02-0.22-0.06l-0.76-1.32l0.28-0.16l0.76,1.32
								C357.85,289.74,357.83,289.83,357.75,289.88z"/>
							<path fill="#AFD4DD" d="M356.7,289.39c-0.04,0.02-0.09,0.01-0.11-0.03l-0.33-0.57l0.14-0.08l0.33,0.57
								C356.76,289.31,356.75,289.36,356.7,289.39z"/>
						</g>
						<g>
							<path fill="#AFD4DD" d="M356.55,290.57c-0.08,0.04-0.18,0.02-0.22-0.06l-0.76-1.32l0.28-0.16l0.76,1.32
								C356.65,290.43,356.63,290.53,356.55,290.57z"/>
							<path fill="#AFD4DD" d="M355.5,290.08c-0.04,0.02-0.09,0.01-0.11-0.03l-0.33-0.57l0.14-0.08l0.33,0.57
								C355.56,290.01,355.54,290.06,355.5,290.08z"/>
						</g>
						<g>
							<path fill="#AFD4DD" d="M355.35,291.26c-0.08,0.04-0.18,0.02-0.22-0.06l-0.76-1.32l0.28-0.16l0.76,1.32
								C355.45,291.12,355.42,291.22,355.35,291.26z"/>
							<path fill="#AFD4DD" d="M354.3,290.77c-0.04,0.02-0.09,0.01-0.11-0.03l-0.33-0.57l0.14-0.08l0.33,0.57
								C354.35,290.7,354.34,290.75,354.3,290.77z"/>
						</g>
						<g>
							<path fill="#AFD4DD" d="M354.14,291.96c-0.08,0.05-0.18,0.02-0.23-0.06l-0.76-1.32l0.29-0.16l0.76,1.32
								C354.25,291.81,354.22,291.92,354.14,291.96z"/>
							<path fill="#AFD4DD" d="M353.1,291.46c-0.04,0.02-0.09,0.01-0.11-0.03l-0.33-0.57l0.14-0.08l0.33,0.57
								C353.15,291.39,353.13,291.44,353.1,291.46z"/>
						</g>
						<g>
							<path fill="#AFD4DD" d="M352.94,292.65c-0.08,0.04-0.18,0.02-0.22-0.06l-0.76-1.32l0.28-0.16l0.76,1.32
								C353.04,292.51,353.01,292.61,352.94,292.65z"/>
							<path fill="#AFD4DD" d="M351.89,292.16c-0.04,0.02-0.09,0.01-0.11-0.03l-0.33-0.57l0.14-0.08l0.33,0.57
								C351.94,292.09,351.93,292.14,351.89,292.16z"/>
						</g>
						<g>
							<path fill="#AFD4DD" d="M351.73,293.35c-0.08,0.05-0.18,0.02-0.22-0.06l-0.76-1.32l0.28-0.16l0.76,1.32
								C351.84,293.2,351.81,293.3,351.73,293.35z"/>
							<path fill="#AFD4DD" d="M350.69,292.85c-0.04,0.02-0.09,0.01-0.11-0.03l-0.33-0.57l0.14-0.08l0.33,0.57
								C350.74,292.78,350.73,292.83,350.69,292.85z"/>
						</g>
						<g>
							<path fill="#AFD4DD" d="M350.53,294.04c-0.08,0.04-0.18,0.02-0.22-0.06l-0.76-1.32l0.28-0.16l0.76,1.32
								C350.64,293.89,350.61,293.99,350.53,294.04z"/>
							<path fill="#AFD4DD" d="M349.48,293.55c-0.04,0.02-0.09,0.01-0.11-0.03l-0.33-0.57l0.14-0.08l0.33,0.57
								C349.53,293.48,349.52,293.52,349.48,293.55z"/>
						</g>
						<g>
							<path fill="#AFD4DD" d="M349.33,294.73c-0.08,0.04-0.18,0.02-0.23-0.06l-0.76-1.32l0.29-0.16l0.76,1.32
								C349.43,294.59,349.4,294.69,349.33,294.73z"/>
							<path fill="#AFD4DD" d="M348.28,294.24c-0.04,0.02-0.09,0.01-0.11-0.03l-0.33-0.57l0.14-0.08l0.33,0.57
								C348.33,294.17,348.32,294.22,348.28,294.24z"/>
						</g>
						<g>
							<path fill="#AFD4DD" d="M348.12,295.43c-0.08,0.04-0.18,0.02-0.22-0.06l-0.76-1.32l0.28-0.16l0.76,1.32
								C348.23,295.28,348.2,295.38,348.12,295.43z"/>
							<path fill="#AFD4DD" d="M347.07,294.93c-0.04,0.02-0.09,0.01-0.11-0.03l-0.33-0.57l0.14-0.08l0.33,0.57
								C347.13,294.86,347.12,294.91,347.07,294.93z"/>
						</g>
						<g>
							<path fill="#AFD4DD" d="M346.92,296.12c-0.08,0.05-0.18,0.02-0.22-0.06l-0.76-1.32l0.28-0.16l0.76,1.32
								C347.02,295.98,347,296.07,346.92,296.12z"/>
							<path fill="#AFD4DD" d="M345.87,295.63c-0.04,0.02-0.09,0.01-0.11-0.03l-0.33-0.57l0.14-0.08l0.33,0.57
								C345.93,295.55,345.91,295.6,345.87,295.63z"/>
						</g>
						<g>
							<path fill="#AFD4DD" d="M345.72,296.81c-0.08,0.04-0.18,0.02-0.22-0.06l-0.76-1.32l0.28-0.16l0.76,1.32
								C345.82,296.67,345.79,296.77,345.72,296.81z"/>
							<path fill="#AFD4DD" d="M344.67,296.32c-0.04,0.02-0.09,0.01-0.11-0.03l-0.33-0.57l0.14-0.08l0.33,0.57
								C344.72,296.25,344.71,296.3,344.67,296.32z"/>
						</g>
						<g>
							<path fill="#AFD4DD" d="M344.51,297.5c-0.08,0.04-0.18,0.02-0.23-0.06l-0.76-1.32l0.29-0.16l0.76,1.32
								C344.62,297.36,344.59,297.46,344.51,297.5z"/>
							<path fill="#AFD4DD" d="M343.47,297.01c-0.04,0.02-0.09,0.01-0.11-0.03l-0.33-0.57l0.14-0.08l0.33,0.57
								C343.52,296.94,343.5,296.99,343.47,297.01z"/>
						</g>
						<g>
							<path fill="#AFD4DD" d="M343.31,298.2c-0.08,0.04-0.18,0.02-0.22-0.06l-0.76-1.32l0.28-0.16l0.76,1.32
								C343.41,298.06,343.38,298.16,343.31,298.2z"/>
							<path fill="#AFD4DD" d="M342.26,297.71c-0.04,0.02-0.09,0.01-0.11-0.03l-0.33-0.57l0.14-0.08l0.33,0.57
								C342.32,297.63,342.3,297.68,342.26,297.71z"/>
						</g>
						<g>
							<path fill="#AFD4DD" d="M342.1,298.89c-0.08,0.05-0.18,0.02-0.22-0.06l-0.76-1.32l0.28-0.16l0.76,1.32
								C342.21,298.75,342.18,298.85,342.1,298.89z"/>
							<path fill="#AFD4DD" d="M341.06,298.4c-0.04,0.02-0.09,0.01-0.11-0.03l-0.33-0.57l0.14-0.08l0.33,0.57
								C341.11,298.33,341.1,298.38,341.06,298.4z"/>
						</g>
						<g>
							<path fill="#AFD4DD" d="M340.9,299.59c-0.08,0.04-0.18,0.02-0.22-0.06l-0.76-1.32l0.28-0.16l0.76,1.32
								C341.01,299.44,340.98,299.54,340.9,299.59z"/>
							<path fill="#AFD4DD" d="M339.86,299.09c-0.04,0.02-0.09,0.01-0.11-0.03l-0.33-0.57l0.14-0.08l0.33,0.57
								C339.91,299.02,339.89,299.07,339.86,299.09z"/>
						</g>
						<g>
							<path fill="#AFD4DD" d="M339.7,300.28c-0.08,0.04-0.18,0.02-0.23-0.06l-0.76-1.32l0.29-0.16l0.76,1.32
								C339.8,300.13,339.77,300.24,339.7,300.28z"/>
							<path fill="#AFD4DD" d="M338.65,299.79c-0.04,0.02-0.09,0.01-0.11-0.03l-0.33-0.57l0.14-0.08l0.33,0.57
								C338.7,299.72,338.69,299.76,338.65,299.79z"/>
						</g>
						<g>
							<path fill="#AFD4DD" d="M338.49,300.97c-0.08,0.04-0.18,0.02-0.22-0.06l-0.76-1.32l0.28-0.16l0.76,1.32
								C338.6,300.83,338.57,300.93,338.49,300.97z"/>
							<path fill="#AFD4DD" d="M337.45,300.48c-0.04,0.02-0.09,0.01-0.11-0.03l-0.33-0.57l0.14-0.08l0.33,0.57
								C337.5,300.41,337.49,300.46,337.45,300.48z"/>
						</g>
						<g>
							<path fill="#AFD4DD" d="M337.29,301.67c-0.08,0.05-0.18,0.02-0.22-0.06l-0.76-1.32l0.28-0.16l0.76,1.32
								C337.39,301.52,337.37,301.62,337.29,301.67z"/>
							<path fill="#AFD4DD" d="M336.24,301.17c-0.04,0.02-0.09,0.01-0.11-0.03l-0.33-0.57l0.14-0.08l0.33,0.57
								C336.3,301.1,336.29,301.15,336.24,301.17z"/>
						</g>
						<g>
							<path fill="#AFD4DD" d="M336.09,302.36c-0.08,0.04-0.18,0.02-0.22-0.06l-0.76-1.32l0.28-0.16l0.76,1.32
								C336.19,302.22,336.17,302.31,336.09,302.36z"/>
							<path fill="#AFD4DD" d="M335.04,301.87c-0.04,0.02-0.09,0.01-0.11-0.03l-0.33-0.57l0.14-0.08l0.33,0.57
								C335.09,301.8,335.08,301.85,335.04,301.87z"/>
						</g>
						<g>
							<path fill="#AFD4DD" d="M334.89,303.05c-0.08,0.04-0.18,0.02-0.23-0.06l-0.76-1.32l0.29-0.17l0.76,1.32
								C334.99,302.91,334.96,303.01,334.89,303.05z"/>
							<path fill="#AFD4DD" d="M333.84,302.56c-0.04,0.02-0.09,0.01-0.11-0.03l-0.33-0.57l0.14-0.08l0.33,0.57
								C333.89,302.49,333.88,302.54,333.84,302.56z"/>
						</g>
						<g>
							<path fill="#AFD4DD" d="M333.68,303.75c-0.08,0.04-0.18,0.02-0.22-0.06l-0.76-1.32l0.28-0.16l0.76,1.32
								C333.78,303.6,333.76,303.7,333.68,303.75z"/>
							<path fill="#AFD4DD" d="M332.63,303.25c-0.04,0.02-0.09,0.01-0.11-0.03l-0.33-0.57l0.14-0.08l0.33,0.57
								C332.69,303.18,332.67,303.23,332.63,303.25z"/>
						</g>
						<g>
							<path fill="#AFD4DD" d="M332.48,304.44c-0.08,0.04-0.18,0.02-0.22-0.06l-0.76-1.32l0.28-0.16l0.76,1.32
								C332.58,304.3,332.55,304.39,332.48,304.44z"/>
							<path fill="#AFD4DD" d="M331.43,303.95c-0.04,0.02-0.09,0.01-0.11-0.03l-0.33-0.57l0.14-0.08l0.33,0.57
								C331.48,303.87,331.47,303.92,331.43,303.95z"/>
						</g>
						<g>
							<path fill="#AFD4DD" d="M331.27,305.13c-0.08,0.04-0.18,0.02-0.22-0.06l-0.76-1.32l0.28-0.16l0.76,1.32
								C331.38,304.99,331.35,305.09,331.27,305.13z"/>
							<path fill="#AFD4DD" d="M330.23,304.64c-0.04,0.02-0.09,0.01-0.11-0.03l-0.33-0.57l0.14-0.08l0.33,0.57
								C330.28,304.57,330.26,304.62,330.23,304.64z"/>
						</g>
					</g>
				</g>
				<g>
					<path fill="#DAE4E5" d="M424.81,496.6c0,2.79-15.02,5.05-33.55,5.05c-18.53,0-33.55-2.26-33.55-5.05
						c0-2.79,15.02-5.05,33.55-5.05C409.79,491.55,424.81,493.81,424.81,496.6z"/>
				</g>
				<g>
					<path fill="#F39F86" d="M399.92,485.88c0,0,0.11,4.62,0.2,5.79c0.09,1.18,3.84,1.26,4.27,0.65c0.44-0.61,0.65-6.01,0.65-6.01"
						/>
					<path fill="#3A3A3A" d="M405.39,493.37c0,1.23-0.34,3.23-0.34,3.23h-4.32l-0.21-0.72c0,0-1.4,0.72-2.5,0.72h-3.65
						c-2.67,0-4.18-0.34-4.25-0.81c-0.28-1.96,2.91-1.87,3.74-1.87c2.38,0,4.96-1.12,5.53-2.33c0.41-0.88,0.23-1.1,0.72-0.94
						c0,0,0.44,0.1,0.74,0.64c0.45,0.83,1.32,1.39,2.25,1.23c0.53-0.09,1.07-0.3,1.46-0.7
						C404.55,491.81,405.39,492.14,405.39,493.37z"/>
				</g>
				<g>
					<path fill="#F39F86" d="M384.76,484.64c0,0,0.8,3.16,1.32,4.22c0.52,1.06,4.03-0.25,4.21-0.97c0.18-0.73-1.62-5.83-1.62-5.83"
						/>
					<path fill="#3A3A3A" d="M391.6,488.49c0.45,1.14,1.13,3.35,1.13,3.35l-3.27,1.95l-0.64-0.48c0,0-0.72,1.17-1.72,1.8
						c-0.74,0.47-2.39,1.15-3.24,1.34c-2.99,0.68-5.3,0.35-5.54-0.06c-0.99-1.72,2.98-2.66,3.75-2.97c2.21-0.88,3.23-3.03,3.3-4.36
						c0.05-0.97-0.2-1.11,0.32-1.14c0,0,0.45-0.08,0.92,0.32c0.73,0.61,1.74,0.81,2.55,0.31c0.46-0.29,0.89-0.67,1.1-1.19
						C390.24,487.35,391.14,487.35,391.6,488.49z"/>
				</g>
				<path fill="#C5E6EF" d="M407.83,379.76c1.55-1.15,3.24-2.43,4.85-3.77c3.66-3.08,6.93-6.42,7.34-8.85
					c0.89-5.45,0.2-21.66-0.24-29.31c-0.01-0.46-0.04-0.89-0.07-1.3c-0.43-7.23-4.32-10.43-6.26-11.6
					c-0.99,9.4-3.23,30.61-3.41,31.7C409.8,358.02,407.83,379.76,407.83,379.76z"/>
				<path fill="#AFD4DD" d="M407.83,379.76c1.55-1.15,3.24-2.43,4.85-3.77c0.14-5.98,1.92-14.32,4.42-24.76
					c2.97-13.17,1.1-15.59,1.1-15.59l-5.97,0.91c-0.99,9.3-2.07,19.34-2.2,20.08C409.8,358.02,407.83,379.76,407.83,379.76z"/>
				<path fill="#023D5F" d="M393.48,429.22c0.34,6.68,0.91,13.57,1.85,18.37c0.79,4.07,13.6,4.82,11.95,1.68
					c-2.38-4.56,1.77-18.85,3.8-43.23c0.29-3.69,1.95-4.11,3.05-11.7c1.09-7.6-3.09-14.19-3.09-14.19l-17.77-1.65l-0.23,22.14
					l-0.07,7.49C392.98,408.13,392.94,418.4,393.48,429.22z"/>
				<path fill="#023D5F" d="M405.72,446.43c0,0,3.48,4.26,2.99,12.07c-0.48,7.81-3.2,31.13-3.2,31.13s-4.08,0.6-6.18-0.17
					c0,0-4.4-43.24-4.41-48.15C394.89,436.39,405.72,446.43,405.72,446.43z"/>
				<path fill="#062F44" d="M393.48,429.22c1.12-3.6,3.34-10.48,5.16-14.37c2.55-5.43,5.04-7.8,5.04-7.8
					c9.02-9.46,2.82-21.7,2.82-21.7s-7.34,6.08-7.86,6.71c-0.49,0.59-3.42,5.75-5.59,8.58l-0.07,7.49
					C392.98,408.13,392.94,418.4,393.48,429.22z"/>
				<path fill="#023D5F" d="M372.41,426.31c0,0-4.03,13.26-3.39,17.42c0.64,4.16,15.38,43.04,15.38,43.04s2.71,0.04,5.91-1.46
					c0,0-0.32-17.12-3.21-27.83c-2.89-10.71-6.25-17.27-9.13-18.23C375.09,438.29,373.21,428.54,372.41,426.31z"/>
				<path fill="#16405A" d="M385.44,434.19c0,0-4.37,6.96-1.68,13.21c2.69,6.25-4.5,5.21-4.5,5.21s-3.6-10.47-2.8-11.83
					c0.8-1.36,3.76-5.92,4.72-6.16C382.13,434.38,385.44,434.19,385.44,434.19z"/>
				<path fill="#023D5F" d="M381.03,378.86c0,0-9.35,43.29-10.57,54.95c-0.52,4.95,4.68,13.11,9.48,8.64
					c5.73-5.34,15-29.78,17.87-34.09c2.88-4.32,13.65-8.27,6.29-30.18"/>
				<path fill="#F39F86" d="M404.11,320.72c0,0-1.28-4.33-0.72-7.53c0.56-3.2,2.48-8.95,1.76-13.27c-0.72-4.32-6.16-7.91-11.91-7.35
					c-5.76,0.56-7.43,6.08-8.39,9.27c-0.96,3.2-0.8,8.07-0.56,10.71c0.24,2.64,1.68,4.72,2.64,5.28c0.96,0.56,4.57-0.18,5.2,0.51
					c0.63,0.69,1.11,4.77,1.11,4.77"/>
				<path fill="#C5E6EF" d="M406.83,324.14c0,0-0.32-2.53-1.28-3.42c-0.96-0.89-7.35-0.89-9.27-0.66c-1.92,0.24-6.65,2.45-7.27,2.91
					c-0.63,0.47,0.61,2.89,0.61,2.89L406.83,324.14z"/>
				<path fill="#F39F86" d="M339.99,299.05c0.05-0.45,0.63-0.24,0.78,0.14c0.02,0.05,0.05,0.17,0.08,0.32
					c-0.06-0.75-0.1-1.36-0.08-1.51c0.04-0.43,0.59-0.27,0.77,0.06c-0.01-0.3-0.02-0.53-0.01-0.62c0.05-0.55,0.64-0.33,0.79,0.13
					c0.03,0.1,0.08,0.39,0.14,0.76c-0.01-0.2-0.01-0.35-0.01-0.42c0.05-0.45,0.57-0.34,0.72,0.03c0.05,0.12,0.08,0.35,0.16,0.88
					c0.07,0.45,0.21,0.94,0.27,1.4c0.09,0.64,0.29,1.29,0.29,1.3c1.05,1.24,2.1,1.62,2.1,1.62l1.25-0.68c0,0,0.4,2.22,0.3,2.89
					c-0.08,0.67-0.57,1.51-0.52,1.92c0.06,0.41,0.52,1.48,0.52,1.48l-3.44,1.43c0,0-0.46-2.06-0.92-2.53
					c-0.48-0.46-2.15-2.45-2.35-2.82c-0.08-0.15-0.29-0.87-0.52-1.71l-0.24-1.28l-0.11-1.25
					C339.97,300.59,339.98,299.2,339.99,299.05z"/>
				<path fill="#C5E6EF" d="M343.51,309.42c0,0,1.16,6.73,2.31,12.11c0.91,4.15,2.04,8.49,4.01,12.4c0.01,0.03,0.01,0.07,0.03,0.1
					c1.13,2.46,3.24,5.47,4.68,5.77c1.44,0.31,6.49-0.03,6.49-0.03c3.13,0.18,11-0.85,17.7-1.75c0.11-0.01,0.21-0.03,0.31-0.04
					c3.12-0.42,5.97-0.8,7.93-1.01c0.92-0.08,1.78-0.48,2.42-1.08c0.59-0.52,1.01-1.22,1.17-2.03c0.01-0.01,0.01-0.01,0.01-0.03
					c0.45-2.17-0.98-3.9-2.82-5.17c-0.08-0.07-0.18-0.11-0.27-0.17c2.28-2.27,4.61-4.74,4.61-4.74s-6.43,0.31-10.03,0.55
					c-2.45,0.17-19.14,4.63-21.14,5.26c-0.15,0.06-0.29,0.11-0.43,0.15c0,0-0.25,0.03-0.63,0.11c-0.11,0.03-0.25,0.08-0.39,0.13
					c-0.56-1.47-1.34-3.03-2.43-4.57c-3.58-5.03-9.4-17.23-9.4-17.23l-3.24,0.96l-0.04,0.01l-0.01,0.01L343.51,309.42z"/>
				<path fill="#023D5F" d="M403.87,315.27c0,0-7.99,0.68-9.51,0c-1.52-0.68-3.72-2.16-3.92-4.88c-0.2-2.72,0.36-3.56-0.68-5.08
					c-1.04-1.52-1.96-1-2.12,0.44c-0.16,1.44-0.22,4.04-0.6,4.23c-0.51,0.26-1.11-1.57-0.92-4.35c0.17-2.41,0.44-4.28,1.16-5.88
					c0.72-1.6,1.11-1.51,1.76-1.8c-0.7-0.34-1.46-0.38-2.84-2.54c-1.6-2.5-0.72-6.39,3.52-6.38c7.4,0.03,15.27,1.48,15.43,6.95
					c0,0,2.6-0.4,2.68,4.6c0.08,5-3.12,11.03-3.36,12.59C404.23,314.75,404.67,314.91,403.87,315.27z"/>
				<path fill="#C5E6EF" d="M381.65,374c-0.29,2.5-2.49,6.38-0.99,6.92c0.6,0.21,3.05,0.07,6.04-0.18h0.08
					c0.06,0,0.1-0.01,0.14-0.01c2.66-0.22,5.69-0.52,8.24-0.71c10.16-0.43,15.35,1.59,16.37,1.02c0.49-0.29,0.5-1.17,0.35-2.08
					c-0.35-2.24-0.46-4.49-0.17-6.74c0.25-1.89,0.6-4.14,1.09-6.71c1.68-8.91,4.96-22.51,5.45-30.69
					c0.78-12.82-12.95-11.6-12.95-11.6c-17.48-1.09-25.68,3.94-26.64,11.45c-0.07,0.53-0.11,1.1-0.15,1.71
					c-0.45,7.75,1.92,20.25,3.03,29.59C381.86,368.52,381.81,371.5,381.65,374z"/>
				<path fill="#AFD4DD" d="M381.65,374c-0.29,2.5-2.49,6.38-0.99,6.92c0.6,0.21,3.05,0.07,6.04-0.18c-2.7,0.2-3.2-1.87-2.6-3.26
					c0.6-1.4,1.85-4.54,1.73-8.28c-0.13-3.72-1.52-12.11-2.35-20.04c-0.78-7.37-0.11-13.13-0.01-13.9c-0.42,0.84-1.62,2.01-5.01,2.8
					c-0.07,7.79,2.06,19.2,3.09,27.88C381.86,368.52,381.81,371.5,381.65,374z"/>
			</g>
			<g>
				<g>
					<path fill="#FF703D" d="M166.69,212.64l19.5-46.52l-14.49,2.93l-0.23,0.04l-28.96,5.86l-0.49,0.09l-29.18,5.91l-0.49,0.09
						l-14.22,2.88L166.69,212.64z M171.57,177.99l-9.24,22.06l-32.8-13.75L171.57,177.99z"/>
					<g>
						<g opacity="0.5">
							<g>
								<path fill="#FFB27E" d="M106.06,182.31l0.31-0.06l0.43,2.11c0.02,0.09-0.04,0.18-0.12,0.2c-0.09,0.02-0.17-0.05-0.19-0.13
									L106.06,182.31z"/>
							</g>
							<g>
								<path fill="#FFB27E" d="M106.83,182.15l0.23-0.05l0.21,1.04c0.01,0.06-0.03,0.12-0.09,0.14c-0.06,0.01-0.12-0.03-0.14-0.09
									L106.83,182.15z"/>
							</g>
						</g>
						<g opacity="0.5">
							<g>
								<path fill="#FFB27E" d="M107.54,182.01l0.31-0.06l0.43,2.11c0.02,0.09-0.04,0.18-0.12,0.2c-0.09,0.02-0.17-0.05-0.19-0.13
									L107.54,182.01z"/>
							</g>
							<g>
								<path fill="#FFB27E" d="M108.31,181.85l0.23-0.05l0.21,1.04c0.01,0.06-0.03,0.12-0.09,0.14c-0.06,0.01-0.12-0.03-0.14-0.09
									L108.31,181.85z"/>
							</g>
						</g>
						<g opacity="0.5">
							<g>
								<path fill="#FFB27E" d="M109.02,181.71l0.31-0.06l0.43,2.11c0.02,0.09-0.04,0.18-0.12,0.2c-0.09,0.02-0.17-0.05-0.19-0.13
									L109.02,181.71z"/>
							</g>
							<g>
								<path fill="#FFB27E" d="M109.79,181.55l0.23-0.05l0.21,1.04c0.01,0.06-0.03,0.12-0.09,0.14c-0.06,0.01-0.12-0.03-0.14-0.09
									L109.79,181.55z"/>
							</g>
						</g>
						<g opacity="0.5">
							<g>
								<path fill="#FFB27E" d="M110.51,181.41l0.31-0.06l0.43,2.11c0.02,0.09-0.04,0.18-0.12,0.2c-0.09,0.02-0.17-0.05-0.19-0.13
									L110.51,181.41z"/>
							</g>
							<g>
								<path fill="#FFB27E" d="M111.28,181.25l0.22-0.04l0.21,1.04c0.01,0.06-0.03,0.12-0.09,0.14c-0.06,0.01-0.12-0.03-0.13-0.09
									L111.28,181.25z"/>
							</g>
						</g>
						<g opacity="0.5">
							<g>
								<path fill="#FFB27E" d="M111.99,181.11l0.32-0.07l0.43,2.11c0.02,0.09-0.04,0.18-0.13,0.2c-0.09,0.02-0.17-0.05-0.19-0.13
									L111.99,181.11z"/>
							</g>
							<g>
								<path fill="#FFB27E" d="M112.76,180.95l0.22-0.04l0.21,1.04c0.01,0.06-0.03,0.12-0.09,0.14c-0.06,0.01-0.12-0.03-0.13-0.09
									L112.76,180.95z"/>
							</g>
						</g>
						<g opacity="0.5">
							<g>
								<path fill="#FFB27E" d="M113.47,180.82l0.32-0.07l0.43,2.1c0.02,0.09-0.04,0.18-0.13,0.2c-0.09,0.02-0.17-0.05-0.19-0.13
									L113.47,180.82z"/>
							</g>
							<g>
								<path fill="#FFB27E" d="M114.25,180.66l0.22-0.04l0.21,1.03c0.01,0.06-0.02,0.12-0.08,0.13c-0.06,0.01-0.12-0.03-0.14-0.09
									L114.25,180.66z"/>
							</g>
						</g>
						<g opacity="0.5">
							<g>
								<path fill="#FFB27E" d="M114.96,180.52l0.32-0.07l0.43,2.1c0.02,0.09-0.04,0.18-0.12,0.2c-0.1,0.02-0.18-0.04-0.2-0.13
									L114.96,180.52z"/>
							</g>
							<g>
								<path fill="#FFB27E" d="M115.73,180.36l0.22-0.04l0.21,1.03c0.01,0.06-0.02,0.12-0.08,0.13c-0.06,0.01-0.12-0.03-0.14-0.09
									L115.73,180.36z"/>
							</g>
						</g>
						<g opacity="0.5">
							<g>
								<path fill="#FFB27E" d="M116.44,180.22l0.32-0.07l0.43,2.1c0.02,0.09-0.04,0.18-0.12,0.2s-0.18-0.04-0.2-0.13L116.44,180.22
									z"/>
							</g>
							<g>
								<path fill="#FFB27E" d="M117.21,180.06l0.23-0.05l0.21,1.03c0.01,0.06-0.03,0.12-0.09,0.14c-0.06,0.01-0.12-0.03-0.14-0.09
									L117.21,180.06z"/>
							</g>
						</g>
						<g opacity="0.5">
							<g>
								<path fill="#FFB27E" d="M117.93,179.92l0.31-0.06l0.43,2.1c0.02,0.09-0.04,0.18-0.12,0.2c-0.09,0.02-0.17-0.05-0.19-0.13
									L117.93,179.92z"/>
							</g>
							<g>
								<path fill="#FFB27E" d="M118.7,179.76l0.23-0.05l0.21,1.03c0.01,0.06-0.03,0.12-0.09,0.14c-0.06,0.01-0.12-0.03-0.14-0.09
									L118.7,179.76z"/>
							</g>
						</g>
						<g opacity="0.5">
							<g>
								<path fill="#FFB27E" d="M119.41,179.62l0.31-0.06l0.43,2.1c0.02,0.09-0.04,0.18-0.12,0.2c-0.09,0.02-0.17-0.05-0.19-0.13
									L119.41,179.62z"/>
							</g>
							<g>
								<path fill="#FFB27E" d="M120.18,179.46l0.23-0.05l0.21,1.03c0.01,0.06-0.03,0.12-0.09,0.14c-0.06,0.01-0.12-0.03-0.14-0.09
									L120.18,179.46z"/>
							</g>
						</g>
						<g opacity="0.5">
							<g>
								<path fill="#FFB27E" d="M120.89,179.31l0.31-0.06l0.43,2.1c0.02,0.09-0.04,0.18-0.12,0.2c-0.09,0.02-0.17-0.05-0.19-0.13
									L120.89,179.31z"/>
							</g>
							<g>
								<path fill="#FFB27E" d="M121.66,179.16l0.23-0.05l0.21,1.03c0.01,0.06-0.03,0.12-0.09,0.14c-0.06,0.01-0.12-0.03-0.14-0.09
									L121.66,179.16z"/>
							</g>
						</g>
						<g opacity="0.5">
							<g>
								<path fill="#FFB27E" d="M122.38,179.01l0.31-0.06l0.43,2.1c0.02,0.09-0.04,0.18-0.12,0.2c-0.09,0.02-0.17-0.05-0.19-0.13
									L122.38,179.01z"/>
							</g>
							<g>
								<path fill="#FFB27E" d="M123.14,178.86l0.23-0.05l0.21,1.03c0.01,0.06-0.03,0.12-0.09,0.14c-0.06,0.01-0.12-0.03-0.14-0.09
									L123.14,178.86z"/>
							</g>
						</g>
						<g opacity="0.5">
							<g>
								<path fill="#FFB27E" d="M123.86,178.71l0.31-0.06l0.43,2.1c0.02,0.09-0.04,0.18-0.12,0.2c-0.09,0.02-0.17-0.05-0.19-0.13
									L123.86,178.71z"/>
							</g>
							<g>
								<path fill="#FFB27E" d="M124.64,178.56l0.22-0.04l0.21,1.03c0.01,0.06-0.03,0.12-0.09,0.14c-0.06,0.01-0.12-0.03-0.13-0.09
									L124.64,178.56z"/>
							</g>
						</g>
						<g opacity="0.5">
							<g>
								<path fill="#FFB27E" d="M125.34,178.41l0.32-0.07l0.43,2.1c0.02,0.09-0.04,0.18-0.13,0.2c-0.09,0.02-0.17-0.05-0.19-0.13
									L125.34,178.41z"/>
							</g>
							<g>
								<path fill="#FFB27E" d="M126.12,178.26l0.22-0.04l0.21,1.03c0.01,0.06-0.03,0.12-0.09,0.14c-0.06,0.01-0.12-0.03-0.13-0.09
									L126.12,178.26z"/>
							</g>
						</g>
						<g opacity="0.5">
							<g>
								<path fill="#FFB27E" d="M126.82,178.11l0.32-0.07l0.43,2.1c0.02,0.09-0.04,0.18-0.13,0.2s-0.17-0.05-0.19-0.13
									L126.82,178.11z"/>
							</g>
							<g>
								<path fill="#FFB27E" d="M127.6,177.96l0.22-0.04l0.21,1.03c0.01,0.06-0.02,0.12-0.08,0.13c-0.06,0.01-0.12-0.03-0.14-0.09
									L127.6,177.96z"/>
							</g>
						</g>
						<g opacity="0.5">
							<g>
								<path fill="#FFB27E" d="M128.31,177.81l0.32-0.07l0.43,2.1c0.02,0.09-0.04,0.18-0.12,0.2c-0.1,0.02-0.18-0.04-0.2-0.13
									L128.31,177.81z"/>
							</g>
							<g>
								<path fill="#FFB27E" d="M129.08,177.66l0.22-0.04l0.21,1.03c0.01,0.06-0.02,0.12-0.08,0.13c-0.06,0.01-0.12-0.03-0.14-0.09
									L129.08,177.66z"/>
							</g>
						</g>
						<g opacity="0.5">
							<g>
								<path fill="#FFB27E" d="M129.79,177.51l0.32-0.07l0.43,2.1c0.02,0.09-0.04,0.18-0.12,0.2c-0.09,0.02-0.18-0.04-0.2-0.13
									L129.79,177.51z"/>
							</g>
							<g>
								<path fill="#FFB27E" d="M130.57,177.36l0.23-0.05l0.21,1.03c0.01,0.06-0.03,0.12-0.09,0.14c-0.06,0.01-0.12-0.03-0.14-0.09
									L130.57,177.36z"/>
							</g>
						</g>
						<g opacity="0.5">
							<g>
								<path fill="#FFB27E" d="M131.28,177.21l0.31-0.06l0.43,2.1c0.02,0.09-0.04,0.18-0.12,0.2c-0.09,0.02-0.17-0.05-0.19-0.13
									L131.28,177.21z"/>
							</g>
							<g>
								<path fill="#FFB27E" d="M132.05,177.06l0.23-0.05l0.21,1.03c0.01,0.06-0.03,0.12-0.09,0.14c-0.06,0.01-0.12-0.03-0.14-0.09
									L132.05,177.06z"/>
							</g>
						</g>
						<g opacity="0.5">
							<g>
								<path fill="#FFB27E" d="M132.76,176.91l0.31-0.06l0.43,2.1c0.02,0.09-0.04,0.18-0.12,0.2c-0.09,0.02-0.17-0.05-0.19-0.13
									L132.76,176.91z"/>
							</g>
							<g>
								<path fill="#FFB27E" d="M133.53,176.76l0.23-0.05l0.21,1.03c0.01,0.06-0.03,0.12-0.09,0.14c-0.06,0.01-0.12-0.03-0.14-0.09
									L133.53,176.76z"/>
							</g>
						</g>
						<g opacity="0.5">
							<g>
								<path fill="#FFB27E" d="M134.25,176.61l0.31-0.06l0.43,2.1c0.02,0.09-0.04,0.18-0.12,0.2c-0.09,0.02-0.17-0.05-0.19-0.13
									L134.25,176.61z"/>
							</g>
							<g>
								<path fill="#FFB27E" d="M135.01,176.46l0.23-0.05l0.21,1.03c0.01,0.06-0.03,0.12-0.09,0.14c-0.06,0.01-0.12-0.03-0.14-0.09
									L135.01,176.46z"/>
							</g>
						</g>
						<g opacity="0.5">
							<g>
								<path fill="#FFB27E" d="M135.73,176.31l0.31-0.06l0.43,2.1c0.02,0.09-0.04,0.18-0.12,0.2c-0.09,0.02-0.17-0.05-0.19-0.13
									L135.73,176.31z"/>
							</g>
							<g>
								<path fill="#FFB27E" d="M136.5,176.16l0.23-0.05l0.21,1.03c0.01,0.06-0.03,0.12-0.09,0.14c-0.06,0.01-0.12-0.03-0.14-0.09
									L136.5,176.16z"/>
							</g>
						</g>
						<g opacity="0.5">
							<g>
								<path fill="#FFB27E" d="M137.21,176.01l0.31-0.06l0.43,2.1c0.02,0.09-0.04,0.18-0.12,0.2c-0.09,0.02-0.17-0.05-0.19-0.13
									L137.21,176.01z"/>
							</g>
							<g>
								<path fill="#FFB27E" d="M137.99,175.86l0.22-0.04l0.21,1.03c0.01,0.06-0.03,0.12-0.09,0.14c-0.06,0.01-0.12-0.03-0.13-0.09
									L137.99,175.86z"/>
							</g>
						</g>
						<g opacity="0.5">
							<g>
								<path fill="#FFB27E" d="M138.69,175.71l0.32-0.07l0.43,2.1c0.02,0.09-0.04,0.18-0.13,0.2c-0.09,0.02-0.17-0.05-0.19-0.13
									L138.69,175.71z"/>
							</g>
							<g>
								<path fill="#FFB27E" d="M139.47,175.55l0.22-0.04l0.21,1.03c0.01,0.06-0.03,0.12-0.09,0.14c-0.06,0.01-0.12-0.03-0.13-0.09
									L139.47,175.55z"/>
							</g>
						</g>
						<g opacity="0.5">
							<g>
								<path fill="#FFB27E" d="M140.18,175.41l0.32-0.07l0.43,2.1c0.02,0.09-0.04,0.18-0.13,0.2c-0.09,0.02-0.17-0.05-0.19-0.13
									L140.18,175.41z"/>
							</g>
							<g>
								<path fill="#FFB27E" d="M140.95,175.25l0.22-0.04l0.21,1.03c0.01,0.06-0.02,0.12-0.08,0.13c-0.06,0.01-0.12-0.03-0.14-0.09
									L140.95,175.25z"/>
							</g>
						</g>
						<g opacity="0.5">
							<g>
								<path fill="#FFB27E" d="M141.66,175.11l0.32-0.07l0.43,2.1c0.02,0.09-0.04,0.18-0.12,0.2c-0.1,0.02-0.18-0.04-0.2-0.13
									L141.66,175.11z"/>
							</g>
							<g>
								<path fill="#FFB27E" d="M142.43,174.95l0.22-0.04l0.21,1.03c0.01,0.06-0.02,0.12-0.08,0.13c-0.06,0.01-0.12-0.03-0.14-0.09
									L142.43,174.95z"/>
							</g>
						</g>
						<g opacity="0.5">
							<g>
								<path fill="#FFB27E" d="M143.14,174.82l0.32-0.07l0.42,2.09c0.02,0.09-0.04,0.18-0.12,0.2c-0.09,0.02-0.18-0.04-0.2-0.13
									L143.14,174.82z"/>
							</g>
							<g>
								<path fill="#FFB27E" d="M143.92,174.66l0.23-0.05l0.21,1.02c0.01,0.06-0.03,0.12-0.09,0.14c-0.06,0.01-0.12-0.03-0.14-0.09
									L143.92,174.66z"/>
							</g>
						</g>
						<g opacity="0.5">
							<g>
								<path fill="#FFB27E" d="M144.63,174.52l0.31-0.06l0.42,2.09c0.02,0.09-0.04,0.18-0.12,0.2c-0.09,0.02-0.17-0.05-0.19-0.13
									L144.63,174.52z"/>
							</g>
							<g>
								<path fill="#FFB27E" d="M145.4,174.36l0.23-0.05l0.21,1.02c0.01,0.06-0.03,0.12-0.09,0.14c-0.06,0.01-0.12-0.03-0.14-0.09
									L145.4,174.36z"/>
							</g>
						</g>
						<g opacity="0.5">
							<g>
								<path fill="#FFB27E" d="M146.12,174.22l0.31-0.06l0.42,2.09c0.02,0.09-0.04,0.18-0.12,0.2c-0.09,0.02-0.17-0.05-0.19-0.13
									L146.12,174.22z"/>
							</g>
							<g>
								<path fill="#FFB27E" d="M146.88,174.06l0.23-0.05l0.21,1.02c0.01,0.06-0.03,0.12-0.09,0.14c-0.06,0.01-0.12-0.03-0.14-0.09
									L146.88,174.06z"/>
							</g>
						</g>
						<g opacity="0.5">
							<g>
								<path fill="#FFB27E" d="M147.6,173.92l0.31-0.06l0.42,2.09c0.02,0.09-0.04,0.18-0.12,0.2c-0.09,0.02-0.17-0.05-0.19-0.13
									L147.6,173.92z"/>
							</g>
							<g>
								<path fill="#FFB27E" d="M148.37,173.76l0.23-0.05l0.21,1.02c0.01,0.06-0.03,0.12-0.09,0.14c-0.06,0.01-0.12-0.03-0.14-0.09
									L148.37,173.76z"/>
							</g>
						</g>
						<g opacity="0.5">
							<g>
								<path fill="#FFB27E" d="M149.08,173.62l0.31-0.06l0.42,2.09c0.02,0.09-0.04,0.18-0.12,0.2c-0.09,0.02-0.17-0.05-0.19-0.13
									L149.08,173.62z"/>
							</g>
							<g>
								<path fill="#FFB27E" d="M149.85,173.46l0.23-0.05l0.21,1.02c0.01,0.06-0.03,0.12-0.09,0.14c-0.06,0.01-0.12-0.03-0.14-0.09
									L149.85,173.46z"/>
							</g>
						</g>
						<g opacity="0.5">
							<g>
								<path fill="#FFB27E" d="M150.56,173.32l0.31-0.06l0.42,2.09c0.02,0.09-0.04,0.18-0.12,0.2c-0.09,0.02-0.17-0.05-0.19-0.13
									L150.56,173.32z"/>
							</g>
							<g>
								<path fill="#FFB27E" d="M151.34,173.16l0.22-0.04l0.21,1.02c0.01,0.06-0.03,0.12-0.09,0.14c-0.06,0.01-0.12-0.03-0.13-0.09
									L151.34,173.16z"/>
							</g>
						</g>
						<g opacity="0.5">
							<g>
								<path fill="#FFB27E" d="M152.05,173.02l0.32-0.07l0.42,2.09c0.02,0.09-0.04,0.18-0.13,0.2c-0.09,0.02-0.17-0.05-0.19-0.13
									L152.05,173.02z"/>
							</g>
							<g>
								<path fill="#FFB27E" d="M152.82,172.86l0.22-0.04l0.21,1.02c0.01,0.06-0.03,0.12-0.09,0.14c-0.06,0.01-0.12-0.03-0.13-0.09
									L152.82,172.86z"/>
							</g>
						</g>
						<g opacity="0.5">
							<g>
								<path fill="#FFB27E" d="M153.53,172.72l0.32-0.07l0.42,2.09c0.02,0.09-0.04,0.18-0.13,0.2c-0.09,0.02-0.17-0.05-0.19-0.13
									L153.53,172.72z"/>
							</g>
							<g>
								<path fill="#FFB27E" d="M154.31,172.56l0.22-0.04l0.21,1.02c0.01,0.06-0.02,0.12-0.08,0.13c-0.06,0.01-0.12-0.03-0.14-0.09
									L154.31,172.56z"/>
							</g>
						</g>
						<g opacity="0.5">
							<g>
								<path fill="#FFB27E" d="M155.01,172.42l0.32-0.07l0.42,2.09c0.02,0.09-0.04,0.18-0.12,0.2c-0.1,0.02-0.18-0.04-0.2-0.13
									L155.01,172.42z"/>
							</g>
							<g>
								<path fill="#FFB27E" d="M155.79,172.26l0.22-0.04l0.21,1.02c0.01,0.06-0.02,0.12-0.08,0.13c-0.06,0.01-0.12-0.03-0.14-0.09
									L155.79,172.26z"/>
							</g>
						</g>
						<g opacity="0.5">
							<g>
								<path fill="#FFB27E" d="M156.49,172.12l0.32-0.07l0.42,2.09c0.02,0.09-0.04,0.18-0.12,0.2c-0.09,0.02-0.18-0.04-0.2-0.13
									L156.49,172.12z"/>
							</g>
							<g>
								<path fill="#FFB27E" d="M157.27,171.96l0.23-0.05l0.21,1.02c0.01,0.06-0.03,0.12-0.09,0.14c-0.06,0.01-0.12-0.03-0.14-0.09
									L157.27,171.96z"/>
							</g>
						</g>
						<g opacity="0.5">
							<g>
								<path fill="#FFB27E" d="M157.99,171.82l0.31-0.06l0.42,2.09c0.02,0.09-0.04,0.18-0.12,0.2c-0.09,0.02-0.17-0.05-0.19-0.13
									L157.99,171.82z"/>
							</g>
							<g>
								<path fill="#FFB27E" d="M158.75,171.66l0.23-0.05l0.21,1.02c0.01,0.06-0.03,0.12-0.09,0.14c-0.06,0.01-0.12-0.03-0.14-0.09
									L158.75,171.66z"/>
							</g>
						</g>
						<g opacity="0.5">
							<g>
								<path fill="#FFB27E" d="M159.47,171.52l0.31-0.06l0.42,2.09c0.02,0.09-0.04,0.18-0.12,0.2s-0.17-0.05-0.19-0.13
									L159.47,171.52z"/>
							</g>
							<g>
								<path fill="#FFB27E" d="M160.24,171.36l0.23-0.05l0.21,1.02c0.01,0.06-0.03,0.12-0.09,0.14c-0.06,0.01-0.12-0.03-0.14-0.09
									L160.24,171.36z"/>
							</g>
						</g>
						<g opacity="0.5">
							<g>
								<path fill="#FFB27E" d="M160.95,171.22l0.31-0.06l0.42,2.09c0.02,0.09-0.04,0.18-0.12,0.2c-0.09,0.02-0.17-0.05-0.19-0.13
									L160.95,171.22z"/>
							</g>
							<g>
								<path fill="#FFB27E" d="M161.72,171.06l0.23-0.05l0.21,1.02c0.01,0.06-0.03,0.12-0.09,0.14c-0.06,0.01-0.12-0.03-0.14-0.09
									L161.72,171.06z"/>
							</g>
						</g>
						<g opacity="0.5">
							<g>
								<path fill="#FFB27E" d="M162.43,170.92l0.31-0.06l0.42,2.09c0.02,0.09-0.04,0.18-0.12,0.2c-0.09,0.02-0.17-0.05-0.19-0.13
									L162.43,170.92z"/>
							</g>
							<g>
								<path fill="#FFB27E" d="M163.2,170.76l0.23-0.05l0.21,1.02c0.01,0.06-0.03,0.12-0.09,0.14c-0.06,0.01-0.12-0.03-0.14-0.09
									L163.2,170.76z"/>
							</g>
						</g>
						<g opacity="0.5">
							<g>
								<path fill="#FFB27E" d="M163.92,170.62l0.31-0.06l0.42,2.09c0.02,0.09-0.04,0.18-0.12,0.2c-0.09,0.02-0.17-0.05-0.19-0.13
									L163.92,170.62z"/>
							</g>
							<g>
								<path fill="#FFB27E" d="M164.69,170.46l0.22-0.04l0.21,1.02c0.01,0.06-0.03,0.12-0.09,0.14c-0.06,0.01-0.12-0.03-0.13-0.09
									L164.69,170.46z"/>
							</g>
						</g>
						<g opacity="0.5">
							<g>
								<path fill="#FFB27E" d="M165.4,170.32l0.32-0.07l0.42,2.09c0.02,0.09-0.04,0.18-0.13,0.2c-0.09,0.02-0.17-0.05-0.19-0.13
									L165.4,170.32z"/>
							</g>
							<g>
								<path fill="#FFB27E" d="M166.17,170.16l0.22-0.04l0.21,1.02c0.01,0.06-0.03,0.12-0.09,0.14c-0.06,0.01-0.12-0.03-0.13-0.09
									L166.17,170.16z"/>
							</g>
						</g>
						<g opacity="0.5">
							<g>
								<path fill="#FFB27E" d="M166.88,170.02l0.32-0.07l0.42,2.09c0.02,0.09-0.04,0.18-0.13,0.2c-0.09,0.02-0.17-0.05-0.19-0.13
									L166.88,170.02z"/>
							</g>
							<g>
								<path fill="#FFB27E" d="M167.66,169.86l0.22-0.04l0.21,1.02c0.01,0.06-0.02,0.12-0.08,0.13c-0.06,0.01-0.12-0.03-0.14-0.09
									L167.66,169.86z"/>
							</g>
						</g>
						<g opacity="0.5">
							<g>
								<path fill="#FFB27E" d="M168.36,169.72l0.32-0.07l0.42,2.09c0.02,0.09-0.04,0.18-0.12,0.2c-0.1,0.02-0.18-0.04-0.2-0.13
									L168.36,169.72z"/>
							</g>
							<g>
								<path fill="#FFB27E" d="M169.14,169.56l0.22-0.04l0.21,1.02c0.01,0.06-0.02,0.12-0.08,0.13c-0.06,0.01-0.12-0.03-0.14-0.09
									L169.14,169.56z"/>
							</g>
						</g>
						<g opacity="0.5">
							<g>
								<path fill="#FFB27E" d="M169.85,169.41l0.32-0.07l0.42,2.09c0.02,0.09-0.04,0.18-0.12,0.2c-0.09,0.02-0.18-0.04-0.2-0.13
									L169.85,169.41z"/>
							</g>
							<g>
								<path fill="#FFB27E" d="M170.62,169.26l0.23-0.05l0.21,1.02c0.01,0.06-0.03,0.12-0.09,0.14c-0.06,0.01-0.12-0.03-0.14-0.09
									L170.62,169.26z"/>
							</g>
						</g>
						<g opacity="0.5">
							<g>
								<path fill="#FFB27E" d="M171.34,169.11l0.31-0.06l0.42,2.09c0.02,0.09-0.04,0.18-0.12,0.2c-0.09,0.02-0.17-0.05-0.19-0.13
									L171.34,169.11z"/>
							</g>
							<g>
								<path fill="#FFB27E" d="M172.1,168.96l0.23-0.04l0.2,1.01c0.01,0.06-0.03,0.12-0.09,0.14c-0.06,0.01-0.12-0.03-0.14-0.09
									L172.1,168.96z"/>
							</g>
						</g>
						<g opacity="0.5">
							<g>
								<path fill="#FFB27E" d="M172.82,168.82l0.31-0.06l0.42,2.08c0.02,0.09-0.04,0.18-0.12,0.2c-0.09,0.02-0.17-0.05-0.19-0.13
									L172.82,168.82z"/>
							</g>
							<g>
								<path fill="#FFB27E" d="M173.59,168.67l0.23-0.05l0.2,1.01c0.01,0.06-0.03,0.12-0.09,0.14c-0.06,0.01-0.12-0.03-0.14-0.09
									L173.59,168.67z"/>
							</g>
						</g>
						<g opacity="0.5">
							<g>
								<path fill="#FFB27E" d="M174.3,168.52l0.31-0.06l0.42,2.08c0.02,0.09-0.04,0.18-0.12,0.2c-0.09,0.02-0.17-0.05-0.19-0.13
									L174.3,168.52z"/>
							</g>
							<g>
								<path fill="#FFB27E" d="M175.07,168.37l0.23-0.05l0.2,1.01c0.01,0.06-0.03,0.12-0.09,0.14c-0.06,0.01-0.12-0.03-0.14-0.09
									L175.07,168.37z"/>
							</g>
						</g>
						<g opacity="0.5">
							<g>
								<path fill="#FFB27E" d="M175.79,168.22l0.31-0.06l0.42,2.08c0.02,0.09-0.04,0.18-0.12,0.2c-0.09,0.02-0.17-0.05-0.19-0.13
									L175.79,168.22z"/>
							</g>
							<g>
								<path fill="#FFB27E" d="M176.55,168.07l0.23-0.05l0.2,1.01c0.01,0.06-0.03,0.12-0.09,0.14c-0.06,0.01-0.12-0.03-0.14-0.09
									L176.55,168.07z"/>
							</g>
						</g>
						<g opacity="0.5">
							<g>
								<path fill="#FFB27E" d="M177.27,167.92l0.31-0.06l0.42,2.08c0.02,0.09-0.04,0.18-0.12,0.2c-0.09,0.02-0.17-0.05-0.19-0.13
									L177.27,167.92z"/>
							</g>
							<g>
								<path fill="#FFB27E" d="M178.04,167.76l0.22-0.04l0.2,1.01c0.01,0.06-0.03,0.12-0.09,0.14c-0.06,0.01-0.12-0.03-0.13-0.09
									L178.04,167.76z"/>
							</g>
						</g>
					</g>
				</g>
				<g>
					<path fill="#DB856E" d="M104.62,180.01c-1.47,11.32,3.18,22.75,7.88,19.6c7.37-4.95,18.31-21.17,19.37-21.22
						c0.61-0.03,1.17,0.35,2.97,0.38c0.89,0.01,2.33-0.28,3.2-0.48c0.18-0.04,0.4-0.14,0.4-0.32c0-0.12-0.09-0.21-0.18-0.28
						c-0.37-0.27-0.84-0.32-1.3-0.33c-0.37-0.01-0.85-0.06-0.96-0.42c-0.06-0.21,0.06-0.44,0.24-0.58c0.18-0.13,0.4-0.19,0.61-0.25
						c1.16-0.3,2.61-0.57,3.77-0.87c-0.71-0.22-1.71-0.44-2.43-0.62c-0.54-0.13-1.09-0.25-1.65-0.28c-0.8-0.05-2.64,0-3.43,0.13
						c-1.61,0.27-2.19,0.64-3.65,1.38c-0.88,0.44-1.67,1.04-2.45,1.65c-1.99,1.56-9.55,10.41-11.19,11.64"/>
				</g>
				<g>
					<path fill="#DB856E" d="M149.12,218.07c0,0-2.54,5.7-3.47,12.17c-0.79,5.53,2.28,14.35,1.94,20.77
						c-0.1,1.25-0.27,4.26-0.76,5.16c-0.6,1.1-1.92,2.32-2.05,3.8c-0.08,0.85,0.44,1.74,1.47,2.21c1.03,0.47,1.71-0.07,2.08-0.04
						c2.15,0.18,2.55,1.73,6.23,2.2c1.14,0.14,2.86-0.27,3.85-1.05c0.38-0.3,0.36-0.77,0.14-1.09c-0.22-0.32-2.95-1.13-4.18-1.84
						c-1.18-0.68-2.47-2.54-2.67-3.29c-0.2-0.75,0.32-4.33,0.55-5.83c1.59-10.36,3.55-24.93,4.6-30.98"/>
					<path fill="#023D5F" d="M158.71,263.51c0.26-0.45,0.32-1.11,0.07-1.27c-0.35-0.21-1.59-0.96-2.31-1.25
						c-0.72-0.29-1.85-0.53-1.45-0.34c0.4,0.19-0.32,0.99-0.99,0.97c-2.31-0.07-4.03-1.48-5.35-1.75c-1.9-0.4-2.35-2.46-2.44-2.81
						c-0.35,0.23-1.54,1.93-1.7,2.47c-0.15,0.49-0.41,1.4-0.25,1.9c0.11,0.35,0.34,1.05,0.24,1.8c0,0,0.38,0.26,1.37,0.43
						c0.63,0.1,1.47-0.02,1.47-0.02l0.15-1.14c0,0,0.52-0.03,1.17,0.07s1.43,0.55,1.79,0.9c0.28,0.28,0.56,0.71,0.92,0.85
						c1.03,0.4,1.79,0.58,2.96,0.61C156.83,265,158.26,264.27,158.71,263.51z"/>
					<path fill="#DB856E" d="M117.68,204.31l-16.7,9.55c0,0,1.06,6.27,8.62,7.89c4.39,0.94,11.28-0.31,13.1-0.22
						c1.82,0.09,30.63,1.13,30.63,1.13s2.86,0.63,3.37-1.63c0.8-3.53,0.01-4.64-2.37-6.22
						C150.33,212.16,135.03,207.14,117.68,204.31z"/>
				</g>
				<g>
					<path fill="#ED9C80" d="M148.79,220.31c0,0-0.87,6.17,0.03,12.66c0.76,5.53,6.46,14.78,7.9,21.05c0.25,1.23,0.92,4.17,0.7,5.17
						c-0.27,1.23-1.2,2.76-0.92,4.21c0.16,0.84,0.9,1.56,2.02,1.72c1.12,0.17,1.62-0.54,1.99-0.61c2.11-0.42,2.93,0.96,6.6,0.39
						c1.13-0.17,2.68-1.05,3.41-2.08c0.28-0.4,0.13-0.84-0.17-1.09c-0.3-0.24-3.14-0.27-4.53-0.61c-1.32-0.33-3.08-1.76-3.48-2.42
						c-0.4-0.66-0.89-4.25-1.08-5.76c-1.33-10.39-3.96-27.9-4.62-34"/>
					<path fill="#023D5F" d="M170.86,262.97c0.13-0.5,0-1.16-0.28-1.24c-0.39-0.11-1.79-0.48-2.56-0.56c-0.77-0.08-1.93,0-1.49,0.07
						s-0.04,1.04-0.68,1.2c-2.23,0.57-4.28-0.31-5.62-0.21c-1.94,0.14-2.94-1.72-3.12-2.02c-0.28,0.32-0.94,2.28-0.95,2.85
						c0,0.52,0,1.45,0.28,1.9c0.2,0.31,0.62,0.92,0.73,1.66c0,0,0.44,0.15,1.43,0.03c0.63-0.07,1.4-0.43,1.4-0.43l-0.18-1.14
						c0,0,0.49-0.18,1.15-0.25c0.66-0.08,1.53,0.13,1.97,0.37c0.35,0.19,0.74,0.53,1.12,0.57c1.1,0.1,1.88,0.06,3.01-0.23
						C169.47,264.92,170.64,263.83,170.86,262.97z"/>
					<path fill="#ED9C80" d="M118.02,205.49l-16.7,9.55c0,0,0.67,6.08,8.23,7.69c4.39,0.94,11.67-0.12,13.49-0.03
						c1.82,0.09,30.63,1.13,30.63,1.13s2.82,0.6,2.96-1.7c0.19-3.08,0.42-4.57-1.95-6.14C150.67,213.35,135.38,208.32,118.02,205.49
						z"/>
				</g>
				<path fill="#023D5F" d="M104.55,200.19c0,0-5.23,10.18-3.89,14.51c1.34,4.34,3.89,8.44,11.06,8.49
					c7.18,0.05,25.16,0.05,25.16,0.05s0.62-4.69,2.2-7.61c1.58-2.92,4.13-5.21,4.13-5.21s-18.24-5.62-19.5-6.83
					c-1.27-1.21-2.5-3.89-2.5-3.89"/>
				<g>
					<path fill="#C5E6EF" d="M107.6,167.25c-2.05,3.62-3.34,8.7-3.8,14.41c0.09,0.09,4.91,1.02,7.23,1.03"/>
				</g>
				<g>
					<path fill="#C5E6EF" d="M121.52,163.43c0.96,0.32,0.6,2.6,1.56,2.92c0.69,0.23,2.05-0.08,2.69,0.28
						c3.37,1.9,2.51,5.7,2.92,10.41c1.43,3.61,1.81,6.89,0.67,8.9c-1.41,2.5-2.91,3.21-4.64,5.29c-1.3,1.55-1.72,4.74-1.99,8.17
						c-0.05,0.59,0.45,1.62,0.3,2.2c-0.27,1.1-1.95,1.44-3.81,1.48c-4.29,0.08-10.8-1.48-12.72-1.41c-1.8,0.07-3.51-0.81-3.33-1.87
						c0.12-0.74,0.87-1.05,1.16-2.49c0.65-3.17,1.15-11.09,1.65-13.77c1.29-6.88,2.24-11.99,5.06-18.32"/>
				</g>
				<g>
					<path fill="#AFD4DD" d="M131.28,179.91c-1.05-1.84-2.49-3.5-3.9-5.1l-3.67,1.65c1.72,3.31,2.04,7.21,2.83,10.82
						c0.83,0.08,2.12-0.21,2.12-0.21c0.36-0.58,0.22-0.29,0.7-1.13C130.12,184.59,131.12,182.33,131.28,179.91z"/>
				</g>
				<path fill="#ED9C80" d="M133.78,154.14c0.39-1.61,0.68-3.33,0.62-4.75c-0.11-2.73-0.45-6.68-4.98-8.3
					c-4.53-1.62-9.53-0.65-11.02,2.62c-1.48,3.27-1.14,8.22-1.36,10.86c-0.22,2.65-2.16,5.81-2.16,5.81l9.76,4.2
					c0,0,1.59-3.47,2.25-3.88c0.66-0.42,0.88,1.24,3.06,1.05c0.92-0.08,1.91-1.73,2.65-3.77c0.02-0.06,0.05-0.14,0.07-0.2
					c0.48-0.03,1.04-0.06,1.16-0.1c0.67-0.2,0.62-0.5,0.47-0.93C133.99,155.84,133.85,154.86,133.78,154.14z"/>
				<g>
					<path fill="#ED9C80" d="M149.64,207.72c0.13,0.78,1.98,2.67,3.19,2.81c0.39,0.04,0.79,0,1.13-0.21
						c0.56,0.15,2.25,0.06,1.48-0.81c1.2,0.71,2.39,0.47,3.72,0.19c0.44-0.1,0.34-0.62-0.68-0.72c-1.42-0.15-2.55-0.89-3.48-2.08
						c0.18-0.19,0.39,0.07,0.96,0.07c0.63,0,0.91-0.33,0.89-0.6c-0.02-0.2-0.79-0.32-0.97-0.4c-0.68-0.31-1.36-0.61-2.04-0.92
						c-0.75-0.34-1.23-0.47-2.05-0.39c-0.14,0.01-1.45,0.31-1.04,0.73"/>
				</g>
				<path fill="#ED9C80" d="M126.82,181.78c0,0,5.12,13.81,6.01,14.93c3.51,4.44,17.31,11.44,17.31,11.44s2.14-0.8,1.71-3.01
					c-4.24-1.87-12.08-10.46-13.79-11.51c-1.11-0.68-6.01-17.56-6.01-17.56"/>
				<path fill="#C5E6EF" d="M128.93,166.43c-3.71-1.42-7.25-1.42-10.1-4.26c-2.88,2.22,3.48,15.04,5.05,15.38
					c1.61,0.35,3.7,7.43,4.1,8.39c5.14-0.14,7.01-2.94,7.01-2.94C132.9,176.56,132.52,167.81,128.93,166.43z"/>
				<g>
					<path fill="#023D5F" d="M125.95,166.78c-0.25-0.96-0.98-1.73-1.15-2.72c-0.15-0.93,0.03-2.12,0.55-2.92
						c0.32-0.49,0.81-0.84,1.27-1.2c2.04-1.61,2.75-2.94,2.07-5.35c-0.22-0.79-0.43-1.6-0.35-2.42c0.07-0.74,0.22-1.51,1.02-1.6
						c0.55-0.06,0.91,0.07,1.1,0.53c0.14,0.33-0.13,2.66,0.64,1.34c0.74-1.27,1.4-1.36,1.36-4.28c0-0.35-0.12-1.75,0.09-1.96
						c1.35,0.99,1.75,2.68,1.91,3.92c1.02-0.43,1.31-1.9,1.31-2.46c0-1.15-0.12-2.03-0.54-2.92c-1.77-3.8-3.65-4.5-5.24-5.17
						c-1.54-0.65-3.14-1.32-4.81-1.27c-1.67,0.04-3.74,0.54-4.22,1.79c-2.31-0.6-3.64,1.43-4.18,2.15
						c-0.78,1.04-1.39,2.21-1.79,3.44c-0.59,1.83-0.73,3.77-1.2,5.64c-0.38,1.52-1.03,3.09-2.2,4.15c-1.13,1.02-2.71,1.11-3.94,2.05
						c-1.55,1.19-2.42,3.16-2.34,5.12c0.08,1.96,1.09,4.07-0.09,5.86c-0.38,0.58-0.92,1.05-1.3,1.64c-0.87,1.35-0.75,3.22,0.09,4.6
						c0.83,1.38,2.46,2.95,3.99,3.41c1.53,0.45,2.72,0.68,4.31,0.59c2.81-0.15,5.18,0.01,8.15-2.54c1.68-1.44,0.61-2.26,2.22-3.79
						c0.91-0.86,2.19-1.31,2.86-2.42c0.55-0.92,0.66-2.07,0.43-3.11C125.97,166.86,125.96,166.82,125.95,166.78z"/>
				</g>
			</g>
		</g>
	</g>
</g>
</svg>
