<?xml version="1.0" encoding="utf-8"?>
<!-- Generator: Adobe Illustrator 25.0.0, SVG Export Plug-In . SVG Version: 6.00 Build 0)  -->
<svg version="1.1" id="Layer_1" xmlns="http://www.w3.org/2000/svg" xmlns:xlink="http://www.w3.org/1999/xlink" x="0px" y="0px"
	 viewBox="0 0 16 16" style="enable-background:new 0 0 16 16;" xml:space="preserve">
<style type="text/css">
	.st0{fill:#FFFFFF;}
</style>
<g>
	<path class="st0" d="M16,8c0,1.3-0.3,2.3-0.8,3.1c-0.5,0.8-1.3,1.1-2.2,1.1c-1,0-1.8-0.5-2.3-1.5c-0.7,1-1.6,1.5-2.9,1.5
		c-1.1,0-2.1-0.4-2.8-1.2c-0.7-0.8-1.1-1.8-1.1-3c0-1.2,0.4-2.2,1.1-3c0.8-0.8,1.7-1.2,2.8-1.2c1,0,1.9,0.4,2.6,1.2h0.1V4.2h1.5v5.1
		c0,1.1,0.4,1.6,1.2,1.6c1,0,1.5-1,1.5-2.9c0-1.8-0.6-3.3-1.9-4.5C11.4,2.2,9.8,1.6,8,1.6c-1.8,0-3.3,0.6-4.6,1.9
		C2.2,4.7,1.6,6.2,1.6,8c0,1.8,0.6,3.3,1.9,4.6c1.2,1.2,2.8,1.9,4.6,1.9c1,0,1.8-0.2,2.6-0.6l0.6,1.4c-1,0.4-2,0.7-3.2,0.7
		c-1.5,0-2.8-0.3-4-1c-1.2-0.7-2.2-1.7-2.9-2.9c-0.4-0.6-0.6-1.3-0.8-1.9C0.1,9.4,0,8.7,0,8c0-0.7,0.1-1.4,0.3-2
		c0.2-0.7,0.4-1.3,0.8-1.9c0.4-0.6,0.8-1.2,1.3-1.7c0.5-0.5,1-0.9,1.7-1.2c0.6-0.3,1.3-0.6,1.9-0.8C6.6,0.2,7.3,0.1,8,0.1
		c1.4,0,2.8,0.3,4,1c1.2,0.7,2.2,1.7,2.9,2.9C15.6,5.2,16,6.6,16,8z M5.4,8.1c0,0.4,0.1,0.7,0.2,1.1C5.7,9.5,5.9,9.7,6.1,10
		c0.2,0.2,0.5,0.4,0.8,0.5c0.3,0.1,0.6,0.2,1,0.2c0.4,0,0.7-0.1,1-0.2c0.3-0.1,0.6-0.3,0.8-0.5c0.2-0.2,0.4-0.5,0.5-0.8
		c0.1-0.3,0.2-0.7,0.2-1.1c0-0.4-0.1-0.7-0.2-1.1c-0.1-0.3-0.3-0.6-0.5-0.8S9.2,5.8,8.9,5.7c-0.3-0.1-0.6-0.2-1-0.2
		c-0.4,0-0.7,0.1-1,0.2C6.6,5.8,6.4,6,6.1,6.2C5.9,6.4,5.7,6.7,5.6,7C5.5,7.3,5.4,7.7,5.4,8.1z"/>
</g>
</svg>
