<?xml version="1.0" encoding="utf-8"?>
<!-- Generator: Adobe Illustrator 25.0.0, SVG Export Plug-In . SVG Version: 6.00 Build 0)  -->
<svg version="1.1" id="Layer_1" xmlns="http://www.w3.org/2000/svg" xmlns:xlink="http://www.w3.org/1999/xlink" x="0px" y="0px"
	 viewBox="0 0 16 16" style="enable-background:new 0 0 16 16;" xml:space="preserve">
<style type="text/css">
	.st0{fill:#FFFFFF;}
</style>
<path class="st0" d="M8,0C3.6,0,0,3.6,0,8s3.6,8,8,8s8-3.6,8-8S12.4,0,8,0z M8,1.2c3.7,0,6.8,3,6.8,6.8c0,3.4-2.5,6.2-5.8,6.7V10
	h1.9L11.2,8H9V7c0-0.8,0.3-1.5,1-1.5h1.2V3.7c-0.2,0-0.7-0.1-1.5-0.1c-1.8,0-2.8,0.9-2.8,3.1V8H5.1V10h1.8v4.7
	C3.7,14.1,1.2,11.4,1.2,8C1.2,4.3,4.3,1.2,8,1.2z"/>
</svg>
