<?xml version="1.0" encoding="utf-8"?>
<!-- Generator: Adobe Illustrator 25.0.0, SVG Export Plug-In . SVG Version: 6.00 Build 0)  -->
<svg version="1.1" id="Layer_1" xmlns="http://www.w3.org/2000/svg" xmlns:xlink="http://www.w3.org/1999/xlink" x="0px" y="0px"
	 viewBox="0 0 16 16" style="enable-background:new 0 0 16 16;" xml:space="preserve">
<style type="text/css">
	.st0{fill:#FFFFFF;}
</style>
<path class="st0" d="M2.2,0C1,0,0,1,0,2.2v11.7C0,15,1,16,2.2,16h11.7c1.2,0,2.2-1,2.2-2.2V2.2C16,1,15,0,13.8,0H2.2z M2.2,1.2h11.7
	c0.5,0,0.9,0.4,0.9,0.9v11.7c0,0.5-0.4,0.9-0.9,0.9H2.2c-0.5,0-0.9-0.4-0.9-0.9V2.2C1.2,1.6,1.6,1.2,2.2,1.2z M3.7,2.5
	C3,2.5,2.5,3,2.5,3.7S3,4.9,3.7,4.9s1.2-0.6,1.2-1.2S4.4,2.5,3.7,2.5z M2.5,6.2v7.4h2.5V6.2H2.5z M6.2,6.2v7.4h2.5v-3.3
	c0-1,0.1-1.9,1.3-1.9c1.2,0,1.1,1.1,1.1,2v3.2h2.5V9.9c0-2.1-0.4-3.7-2.8-3.7C9.5,6.2,9,6.6,8.6,7.2h0V6.2H6.2z"/>
</svg>
