<?xml version="1.0" encoding="utf-8"?>
<!-- Generator: Adobe Illustrator 25.0.0, SVG Export Plug-In . SVG Version: 6.00 Build 0)  -->
<svg version="1.1" id="Layer_1" xmlns="http://www.w3.org/2000/svg" xmlns:xlink="http://www.w3.org/1999/xlink" x="0px" y="0px"
	 viewBox="0 0 16 16" style="enable-background:new 0 0 16 16;" xml:space="preserve">
<style type="text/css">
	.st0{fill:#FFFFFF;}
</style>
<path class="st0" d="M4.6,0C2.1,0,0,2.1,0,4.6v6.7C0,13.9,2.1,16,4.6,16h6.7c2.6,0,4.6-2.1,4.6-4.6V4.6C16,2.1,13.9,0,11.4,0H4.6z
	 M4.6,1.2h6.7c1.9,0,3.4,1.5,3.4,3.4v6.7c0,1.9-1.5,3.4-3.4,3.4H4.6c-1.9,0-3.4-1.5-3.4-3.4V4.6C1.2,2.8,2.8,1.2,4.6,1.2z M12.9,2.5
	c-0.3,0-0.6,0.3-0.6,0.6s0.3,0.6,0.6,0.6s0.6-0.3,0.6-0.6S13.3,2.5,12.9,2.5z M8,3.7C5.6,3.7,3.7,5.6,3.7,8s1.9,4.3,4.3,4.3
	s4.3-1.9,4.3-4.3S10.4,3.7,8,3.7z M8,4.9c1.7,0,3.1,1.4,3.1,3.1S9.7,11.1,8,11.1S4.9,9.7,4.9,8S6.3,4.9,8,4.9z"/>
</svg>
