<?xml version="1.0" encoding="utf-8"?>
<!-- Generator: Adobe Illustrator 25.0.0, SVG Export Plug-In . SVG Version: 6.00 Build 0)  -->
<svg version="1.1" id="Layer_1" xmlns="http://www.w3.org/2000/svg" xmlns:xlink="http://www.w3.org/1999/xlink" x="0px" y="0px"
	 viewBox="0 0 16 16" style="enable-background:new 0 0 16 16;" xml:space="preserve">
<style type="text/css">
	.st0{fill:#FFFFFF;}
</style>
<path class="st0" d="M16,3.2c-0.6,0.3-1.2,0.5-1.9,0.5c0.7-0.4,1.2-1,1.5-1.7c-0.7,0.4-1.3,0.6-2.1,0.8c-0.7-0.6-1.5-1-2.5-1
	c-1.8,0-3.3,1.4-3.3,3.2c0,0.3,0,0.5,0.1,0.7c-3.4,0-5.8-1.9-7.4-3.9C0.1,2.2,0,2.7,0,3.3C0,4.4,0.6,5.4,1.5,6
	C0.9,5.9,0.4,5.8,0,5.6c0,0,0,0,0,0.1c0,1.5,1.1,2.8,2.6,3.1C2.3,8.8,2.1,8.9,1.7,8.9c-0.2,0-0.4,0-0.6-0.1c0.4,1.3,2.3,2.8,3.7,2.8
	c-1.1,0.8-2.2,1.6-4.3,1.6c-0.3,0-0.1,0-0.6,0c1.5,0.9,3.2,1.1,5,1.1c6.1,0,9.3-4.8,9.3-9c0-0.1,0-0.3,0-0.4C15,4.4,15.5,3.8,16,3.2
	"/>
</svg>
