<?xml version="1.0" encoding="utf-8"?>
<!-- Generator: Adobe Illustrator 25.0.0, SVG Export Plug-In . SVG Version: 6.00 Build 0)  -->
<svg version="1.1" id="Layer_1" xmlns="http://www.w3.org/2000/svg" xmlns:xlink="http://www.w3.org/1999/xlink" x="0px" y="0px"
	 viewBox="0 0 1200 580" style="enable-background:new 0 0 1200 580;" xml:space="preserve">
<style type="text/css">
	.st0{fill:#FFFA72;}
	.st1{fill:#D6F2FF;}
	.st2{fill:#C7E1F3;}
	.st3{fill:#B8CFE6;}
	.st4{fill:#A9BEDA;}
	.st5{fill:#9AADCE;}
	.st6{fill:#8B9BC1;}
	.st7{fill:#7D8AB5;}
	.st8{fill:#6E79A9;}
	.st9{fill:#5F679C;}
	.st10{fill:#505690;}
	.st11{fill:#414584;}
	.st12{fill:#323377;}
</style>
<path class="st0" d="M687.6,606.6c31.6,70.2,144.7,105.3,339.2,105.3c291.9,0,236.5-144.4,205.8-238
	c-30.7-93.7-210.5-135.8-269.4-81.3c-59,54.6-200,64.6-259.3,89.8C664.3,499.1,658.9,540.5,687.6,606.6L687.6,606.6z"/>
<path class="st1" d="M265.4,476.1c-17.6,196.5,246,294.7,790.8,294.7c817.2,0,880.3-404.2,935.7-666.4
	c55.4-262.2-384.2-380.3-631.6-227.6c-247.5,152.8-657.6,181-861.7,251.4C362.6,175.3,284.8,291.2,265.4,476.1L265.4,476.1z"/>
<path class="st2" d="M297,487c-6.8,186,247.7,279,763.3,279c773.4,0,812.9-382.5,852.1-630.7c39.3-248.2-382.7-360-609.2-215.4
	C1076.6,64.5,689.9,91.1,500.3,157.8C373.9,202.2,306.1,312,297,487L297,487z"/>
<path class="st3" d="M329.5,497.9C332,673.3,576.5,761,1062.9,761c729.7,0,748.5-360.9,773.7-595
	c25.2-234.1-378.2-339.6-585.1-203.2C1044.8,99.3,681.2,124.4,505.5,187.3C388.4,229.2,329.7,332.8,329.5,497.9L329.5,497.9z"/>
<path class="st4" d="M362.7,508.7c10.4,164.9,244.2,247.4,701.5,247.4c685.9,0,687.1-339.2,700.1-559.3
	c13-220.1-371.1-319.2-559.2-191c-188.2,128.2-528.8,151.9-691,211C405.8,256.2,355.4,353.5,362.7,508.7L362.7,508.7z"/>
<path class="st5" d="M396.6,519.6c17,154.4,239.5,231.6,667.6,231.6c642.1,0,628.3-317.6,630.8-523.6
	c2.5-206-361.4-298.8-531.9-178.8C992.5,168.8,674.7,191,525.3,246.3C425.8,283.2,382.9,374.3,396.6,519.6L396.6,519.6z"/>
<path class="st6" d="M431.1,530.5c22.4,143.9,233,215.8,631.9,215.8c598.3,0,572-295.9,565.6-487.9
	c-6.4-192-349.4-278.5-503.3-166.6c-153.8,111.9-449,132.5-585.8,184.1C448.3,310.2,412.2,395.1,431.1,530.5L431.1,530.5z"/>
<path class="st7" d="M466.2,541.4c26.6,133.3,224.8,200,594.5,200c554.5,0,518.1-274.3,504.2-452.2
	C1551,111.2,1229.6,31,1091.6,134.7c-138,103.7-410.7,122.8-535.4,170.6C473.1,337.2,443.1,415.9,466.2,541.4L466.2,541.4z"/>
<path class="st8" d="M501.8,552.2c29.8,122.8,215,184.2,555.5,184.2c510.8,0,466.2-252.6,446.4-416.5
	c-19.8-163.9-319.1-237.7-442.1-142.2c-123,95.5-373.4,113.1-486.3,157.1C500.1,364.2,475.6,436.6,501.8,552.2L501.8,552.2z"/>
<path class="st9" d="M538,563.1c32,112.3,203.7,168.4,515,168.4c467,0,416.5-231,392-380.8c-24.5-149.8-301-217.3-409.7-130
	c-108.7,87.3-337,103.4-438.6,143.7C529.1,391.2,509.5,457.4,538,563.1L538,563.1z"/>
<path class="st10" d="M574.7,574c33.3,101.8,191,152.6,473.1,152.6c423.2,0,368.7-209.3,340.8-345.1
	c-27.9-135.8-281-197-376.2-117.8c-95.2,79.1-301.5,93.7-392,130.2C560.1,418.1,544.9,478.2,574.7,574L574.7,574z"/>
<path class="st11" d="M611.9,584.8c33.6,91.2,176.9,136.8,429.8,136.8c379.4,0,322.8-187.7,292.8-309.4
	c-30-121.8-259.2-176.6-341.6-105.7c-82.4,70.9-266.9,84-346.6,116.7C593,445.1,581.6,499,611.9,584.8L611.9,584.8z"/>
<path class="st12" d="M649.5,595.7c33,80.7,161.4,121.1,385.2,121.1c335.6,0,278.8-166,247.8-273.7c-31-107.7-235.7-156.2-306-93.5
	c-70.4,62.8-233,74.3-302.4,103.3C627.8,472.1,619.6,519.7,649.5,595.7L649.5,595.7z"/>
</svg>
